<mxfile host="app.diagrams.net" agent="Mozilla/5.0 (Windows NT 10.0; Win64; x64) AppleWebKit/537.36 (KHTML, like Gecko) Chrome/131.0.0.0 Safari/537.36" version="25.0.3" pages="2">
  <diagram name="VBackground-1 (Background)" id="VBackground-1">
    <mxGraphModel style="default-style2">
      <root>
        <mxCell id="0" />
        <mxCell id="1" parent="0" />
        <UserObject label="" tags="Background" id="2">
          <mxCell style="vsdxID=2;fillColor=#ffffff;gradientColor=none;shape=stencil(nZBLDoAgDERP0z3SIyjew0SURgSD+Lu9kMZoXLhwN9O+tukAlrNpJg1SzDH4QW/URgNYgZTkjA4UkwJUgGXng+6DX1zLfmoymdXo17xh5zmRJ6Q42BWCfc2oJfdAr+Yv+AP9Cb7OJ3H/2JG1HNGz/84klThPVCc=);strokeColor=none;points=[];labelBackgroundColor=none;rounded=0;html=1;whiteSpace=wrap;" vertex="1" parent="1">
            <mxGeometry width="1270" height="501" as="geometry" />
          </mxCell>
        </UserObject>
      </root>
    </mxGraphModel>
  </diagram>
  <diagram name="azure-devops-ci-cd-architecture" id="azure-devops-ci-cd-architecture">
    <mxGraphModel dx="1502" dy="386" grid="1" gridSize="10" guides="1" tooltips="1" connect="1" arrows="1" fold="1" page="1" pageScale="1" pageWidth="850" pageHeight="1100" math="0" shadow="0">
      <root>
        <mxCell id="0" />
        <mxCell id="2" value="VBackground-1" parent="0" />
        <UserObject label="" tags="Background" id="3">
          <mxCell style="vsdxID=2;fillColor=#ffffff;gradientColor=none;shape=stencil(nZBLDoAgDERP0z3SIyjew0SURgSD+Lu9kMZoXLhwN9O+tukAlrNpJg1SzDH4QW/URgNYgZTkjA4UkwJUgGXng+6DX1zLfmoymdXo17xh5zmRJ6Q42BWCfc2oJfdAr+Yv+AP9Cb7OJ3H/2JG1HNGz/84klThPVCc=);strokeColor=none;points=[];labelBackgroundColor=none;rounded=0;html=1;whiteSpace=wrap;" parent="2" vertex="1">
            <mxGeometry x="5" width="1270" height="501" as="geometry" />
          </mxCell>
        </UserObject>
        <mxCell id="EU93jw4XNmMSngihtNek-173" value="" style="rounded=0;whiteSpace=wrap;html=1;" vertex="1" parent="2">
          <mxGeometry x="678" y="261" width="192" height="90" as="geometry" />
        </mxCell>
        <mxCell id="cOxoSY2Wna4llYPs1EtQ-174" value="" style="image;aspect=fixed;html=1;points=[];align=center;fontSize=12;image=img/lib/azure2/app_services/App_Services.svg;" vertex="1" parent="2">
          <mxGeometry x="749" y="290" width="50" height="50" as="geometry" />
        </mxCell>
        <UserObject label="&lt;div style=&quot;font-size: 1px&quot;&gt;&lt;p style=&quot;margin: 0px; text-indent: 0px; vertical-align: middle; direction: ltr;&quot;&gt;&lt;font style=&quot;font-size:12.7px;font-family:Segoe UI;color:#000000;direction:ltr;letter-spacing:0px;line-height:120%;opacity:1&quot;&gt;&lt;b&gt;Azure App Service Slot&lt;br&gt;&lt;/b&gt;&lt;/font&gt;&lt;/p&gt;&lt;/div&gt;" tags="Background" id="EU93jw4XNmMSngihtNek-175">
          <mxCell style="verticalAlign=middle;align=center;overflow=width;vsdxID=135;fillColor=none;gradientColor=none;shape=stencil(nZBLDoAgDERP0z3SIyjew0SURgSD+Lu9kMZoXLhwN9O+tukAlrNpJg1SzDH4QW/URgNYgZTkjA4UkwJUgGXng+6DX1zLfmoymdXo17xh5zmRJ6Q42BWCfc2oJfdAr+Yv+AP9Cb7OJ3H/2JG1HNGz/84klThPVCc=);strokeColor=none;points=[];labelBackgroundColor=none;rounded=0;html=1;whiteSpace=wrap;" vertex="1" parent="2">
            <mxGeometry x="703.5" y="260" width="155" height="32" as="geometry" />
          </mxCell>
        </UserObject>
        <mxCell id="EU93jw4XNmMSngihtNek-176" value="" style="rounded=0;whiteSpace=wrap;html=1;" vertex="1" parent="2">
          <mxGeometry x="679" y="97" width="192" height="90" as="geometry" />
        </mxCell>
        <UserObject label="&lt;div style=&quot;&quot;&gt;&lt;p style=&quot;margin: 0px; text-indent: 0px; vertical-align: middle; direction: ltr;&quot;&gt;&lt;font style=&quot;font-family: &amp;quot;Segoe UI&amp;quot;; color: rgb(0, 0, 0); direction: ltr; letter-spacing: 0px; line-height: 120%; opacity: 1;&quot;&gt;&lt;b style=&quot;&quot;&gt;&lt;span style=&quot;font-size: 12.7px;&quot;&gt;Azure App Service&lt;/span&gt;&lt;/b&gt;&lt;/font&gt;&lt;/p&gt;&lt;/div&gt;" tags="Background" id="EU93jw4XNmMSngihtNek-177">
          <mxCell style="verticalAlign=middle;align=center;overflow=width;vsdxID=135;fillColor=none;gradientColor=none;shape=stencil(nZBLDoAgDERP0z3SIyjew0SURgSD+Lu9kMZoXLhwN9O+tukAlrNpJg1SzDH4QW/URgNYgZTkjA4UkwJUgGXng+6DX1zLfmoymdXo17xh5zmRJ6Q42BWCfc2oJfdAr+Yv+AP9Cb7OJ3H/2JG1HNGz/84klThPVCc=);strokeColor=none;points=[];labelBackgroundColor=none;rounded=0;html=1;whiteSpace=wrap;" vertex="1" parent="2">
            <mxGeometry x="690.5" y="100" width="161.5" height="27" as="geometry" />
          </mxCell>
        </UserObject>
        <mxCell id="EU93jw4XNmMSngihtNek-178" value="" style="image;aspect=fixed;html=1;points=[];align=center;fontSize=12;image=img/lib/azure2/app_services/App_Services.svg;" vertex="1" parent="2">
          <mxGeometry x="750" y="131" width="50" height="50" as="geometry" />
        </mxCell>
        <mxCell id="EU93jw4XNmMSngihtNek-180" value="" style="shape=image;verticalLabelPosition=bottom;labelBackgroundColor=default;verticalAlign=top;aspect=fixed;imageAspect=0;image=data:image/webp,UklGRoYDAABXRUJQVlA4WAoAAAAYAAAAfAAAIAAAVlA4TO8CAAAvfAAIEN5QkLYB0/n3fRVExARwKTvLpUi2VcnW/GfF3O7rghfRH7sVEnkksmRL5JHIGkJLJPIsV1GgIhkEAGJBggQJEiRIkCBBggQJEiRIcGACnNi2XTWZ/7RJ+XUCV1YiI99xkcjIyMhK5JVIJDLCIAAQCxIkSJAgQYIECRIkSJAgQYIDE6B3MWnKtOkhzUryimblcU38ahKkAupK/rOVDkiR5ZFQERHnc/IOderfc8PKCUwA9pwWXK7H3sFK9IgzLK7pd+qVSL7GsngGAZcOe4ezjBvwG3T2eXHv/RQq24+pwSoAhHHJ6TKSjaqOnmCDqdwFntcj3Ag1hn7YTeV+Bgae1WDmDUl/tHdc/Az7+jMYDOVv7D9MYMgA4incBQbXkVh8FU3SGS7pjKbGCsOeghUZR2Cfym7UuxJP4SrQuY9EuAr+7stCT3BR8xy+R577hMia0F6Fb0ZWpSozbXpSS4kBzuQy2W4cZJUASCGppwMnCvJqJ5SkCoA0SQQppQfmyGBmGMwcgA/wrBKApR/T89NdmEYGIhWn9DJmeYU4NKErMyYJJ8kecIsLrvjnjojQBRTphV+HiBiMiB/0H9SAq0O/oKlwzVID7JHfsM+cZxKTkLEUEFKuS1KlwC1jBYRkLHWQBg4IFfyHq0Gbp9+G+j0lNduwm3I7hr6NMcRK/mCswXtxamnrHB2ubNNPam6sVLjgydwR9zqFrkp5qYuk2R9coYKDy3hyHPAsce9/QUDP5JcdL4QC4LeCdIaZhasoRKVMgFNLgAiQ8SaAJRUo2nmDf4c7YBS4lpx2eyh6OTcZBUI64N3bD+KCCIj7xEu6pM6IAzIBsUbcUKUHnr11stdEXsdkYxMNLAXE3t5c3+LM/cxYdOv84DValD8PmC4NvAWEBL1CHfD/EPAe0NcblLcD8Egv5wYNmnTyNqavPmgAlP932U167GY3XbbU7CZV12Y/UrMlVVe11+63pOoq6a720dTspupXanab88EDAEVYSUZwAAAATU0AKgAAABBFeGlmTWV0YQAFARoABQAAAAEAAABSARsABQAAAAEAAABaASgAAwAAAAEAAQAAATEAAgAAAA4AAABiAhMAAwAAAAEAAQAAAAAAAAAAAAEAAAABAAAAAQAAAAFTcGVlZFNpemUuY29tAA==;" vertex="1" parent="2">
          <mxGeometry x="381" y="200" width="89" height="23.5" as="geometry" />
        </mxCell>
        <UserObject label="" tags="Connector" id="EU93jw4XNmMSngihtNek-188">
          <mxCell style="vsdxID=119;edgeStyle=none;startArrow=none;endArrow=block;startSize=9;endSize=9;strokeWidth=2;spacingTop=0;spacingBottom=0;spacingLeft=0;spacingRight=0;verticalAlign=middle;html=1;labelBackgroundColor=#ffffff;rounded=0;entryX=0.002;entryY=0.615;entryDx=0;entryDy=0;entryPerimeter=0;exitX=0.85;exitY=0.85;exitDx=0;exitDy=0;exitPerimeter=0;" edge="1" parent="2">
            <mxGeometry relative="1" as="geometry">
              <mxPoint as="offset" />
              <Array as="points" />
              <mxPoint x="465.10000000000014" y="214.0999999999999" as="sourcePoint" />
              <mxPoint x="503.22399999999993" y="213.18500000000006" as="targetPoint" />
            </mxGeometry>
          </mxCell>
        </UserObject>
        <mxCell id="EU93jw4XNmMSngihtNek-190" value="" style="html=1;shadow=0;dashed=0;align=center;verticalAlign=middle;shape=mxgraph.arrows2.twoWayArrow;dy=0.65;dx=22;rotation=90;fillColor=#1ba1e2;fontColor=#ffffff;strokeColor=#006EAF;" vertex="1" parent="2">
          <mxGeometry x="745.5" y="211.5" width="55" height="20" as="geometry" />
        </mxCell>
        <mxCell id="EU93jw4XNmMSngihtNek-191" value="Swapping between Production &amp;amp; S&lt;span style=&quot;background-color: initial;&quot;&gt;lot&lt;/span&gt;" style="text;html=1;align=center;verticalAlign=middle;whiteSpace=wrap;rounded=0;fillColor=default;fontStyle=1" vertex="1" parent="2">
          <mxGeometry x="784" y="207" width="136" height="30" as="geometry" />
        </mxCell>
        <mxCell id="1" value="azure-devops-ci-cd-architecture" parent="0" />
        <UserObject label="" tags="Background" id="5">
          <mxCell style="vsdxID=109;fillColor=#d8d8d8;gradientColor=none;shape=stencil(nZBLDoAgDERP0z3SIyjew0SURgSD+Lu9kMZoXLhwN9O+tukAlrNpJg1SzDH4QW/URgNYgZTkjA4UkwJUgGXng+6DX1zLfmoymdXo17xh5zmRJ6Q42BWCfc2oJfdAr+Yv+AP9Cb7OJ3H/2JG1HNGz/84klThPVCc=);strokeColor=none;points=[[0,0.5,0],[1,0.5,0],[0.5,1,0],[0.5,0,0]];labelBackgroundColor=none;rounded=0;html=1;whiteSpace=wrap;" parent="1" vertex="1">
            <mxGeometry x="138" y="186" width="50" height="50" as="geometry" />
          </mxCell>
        </UserObject>
        <UserObject label="" tags="Background" id="6">
          <mxCell style="vsdxID=5;fillColor=#d8d8d8;gradientColor=none;shape=stencil(nZBLDoAgDERP0z3SIyjew0SURgSD+Lu9kMZoXLhwN9O+tukAlrNpJg1SzDH4QW/URgNYgZTkjA4UkwJUgGXng+6DX1zLfmoymdXo17xh5zmRJ6Q42BWCfc2oJfdAr+Yv+AP9Cb7OJ3H/2JG1HNGz/84klThPVCc=);strokeColor=none;points=[[0,0.5,0],[1,0.5,0],[0.5,1,0],[0.5,0,0]];labelBackgroundColor=none;rounded=0;html=1;whiteSpace=wrap;" parent="1" vertex="1">
            <mxGeometry x="37" y="186" width="50" height="50" as="geometry" />
          </mxCell>
        </UserObject>
        <UserObject label="" tags="Background" id="7">
          <mxCell style="vsdxID=1;fillColor=none;gradientColor=none;strokeColor=none;spacingTop=-3;spacingBottom=-3;spacingLeft=-3;spacingRight=-3;points=[];labelBackgroundColor=none;rounded=0;html=1;whiteSpace=wrap;" parent="1" vertex="1">
            <mxGeometry x="45" y="195" width="34" height="36" as="geometry" />
          </mxCell>
        </UserObject>
        <mxCell id="8" style="vsdxID=2;fillColor=none;gradientColor=none;strokeColor=none;spacingTop=-3;spacingBottom=-3;spacingLeft=-3;spacingRight=-3;points=[];labelBackgroundColor=none;rounded=0;html=1;whiteSpace=wrap;" parent="7" vertex="1">
          <mxGeometry width="34" height="36" as="geometry" />
        </mxCell>
        <mxCell id="9" style="vsdxID=3;fillColor=#4bacc6;gradientColor=none;shape=stencil(vVHLDsIgEPwajiQI6RfU+h8bu22JCGRB2/69kG1iazx58DazM/vIjjBtmiCi0CplCjecbZ8nYc5Ca+snJJsLEqYTph0C4Ujh4XvmEaqzont41gkL96naodXKrGF6YSfQtUi0OXXDVlqPfJNP6usotUhYbJIUMmQb/GGrAxpRljVycDBuc1hKM2LclX8/7H9nFfB+82Cd45T2+mcspcSRmu4F);strokeColor=none;strokeWidth=9;spacingTop=-3;spacingBottom=-3;spacingLeft=-3;spacingRight=-3;points=[];labelBackgroundColor=none;rounded=0;html=1;whiteSpace=wrap;" parent="8" vertex="1">
          <mxGeometry x="8" width="17" height="17" as="geometry" />
        </mxCell>
        <mxCell id="10" style="vsdxID=4;fillColor=#4bacc6;gradientColor=none;shape=stencil(pVTbDoIwDP2avS5by2A+e/kPoyiLCGbg7e+FbJNdItH41p6d9bSHFYLLrtpeSgKs63V7Ku9q31cEVwRANVWpVT9EBNcEl4dWl0fdXpu9yS/bkTlG5/Y2VniYe5yx8Q6wZ5hvDLlWzQxZBNzdVZvKPGZbIAMqDPIAgywk5WhJFkJHQUux+dPmOKspvYKuDUmLSLZYUJShLOcUIuWC0RxD8dyRPsjn2VTYQsnMonCI02ahrmCh6OzAGSYDs1AP302/BaeerAR4hnw5Knju8NTDyVYZOZ2M+8v39crx6L2EZjq1LJk1clfMvPc/VuMf8hBM63pQdW223T+P13uAzK8B1y8=);strokeColor=none;strokeWidth=9;spacingTop=-3;spacingBottom=-3;spacingLeft=-3;spacingRight=-3;points=[];labelBackgroundColor=none;rounded=0;html=1;whiteSpace=wrap;" parent="8" vertex="1">
          <mxGeometry y="19" width="34" height="17" as="geometry" />
        </mxCell>
        <UserObject label="" tags="Background" id="11">
          <mxCell style="vsdxID=12;fillColor=none;gradientColor=none;fillOpacity=0;strokeOpacity=0;shape=stencil(UzV2Ls5ILEhVNTIoLinKz04tz0wpyVA1dlE1MsrMy0gtyiwBslSNXVWNndPyi1LTi/JL81Ig/IJEkEoQKze/DGRCBUSfoYEBSI+RQSUq3w2iOCczD0kx2UrxKER3AAlK0RwAZCB8mZaZkwMJJGR59FABCkFC1NgVAA==);strokeWidth=54;spacingTop=-3;spacingBottom=-3;spacingLeft=-3;spacingRight=-3;points=[];labelBackgroundColor=none;rounded=0;html=1;whiteSpace=wrap;" parent="1" vertex="1">
            <mxGeometry x="449" y="308" width="50" height="50" as="geometry" />
          </mxCell>
        </UserObject>
        <UserObject label="" tags="Background" id="20">
          <mxCell style="vsdxID=98;fillColor=none;gradientColor=none;strokeColor=none;spacingTop=-3;spacingBottom=-3;spacingLeft=-3;spacingRight=-3;points=[];labelBackgroundColor=none;rounded=0;html=1;whiteSpace=wrap;" parent="1" vertex="1">
            <mxGeometry x="139" y="186" width="36" height="36" as="geometry" />
          </mxCell>
        </UserObject>
        <mxCell id="21" style="vsdxID=99;fillColor=none;gradientColor=none;fillOpacity=0;strokeOpacity=0;shape=stencil(UzV2Ls5ILEhVNTIoLinKz04tz0wpyVA1dlE1MsrMy0gtyiwBslSNXVWNndPyi1LTi/JL81Ig/IJEkEoQKze/DGRCBUSfoYEBSI+RQSUq3w2iOCczD0kx2UrxKER3AAlK0RwAZCB8mZaZkwMJJGR59FABCkFC1NgVAA==);strokeWidth=54;spacingTop=-3;spacingBottom=-3;spacingLeft=-3;spacingRight=-3;points=[];labelBackgroundColor=none;rounded=0;html=1;whiteSpace=wrap;" parent="20" vertex="1">
          <mxGeometry width="36" height="36" as="geometry" />
        </mxCell>
        <mxCell id="22" style="vsdxID=100;fillColor=#f05133;gradientColor=none;shape=stencil(xVbddoMgDH4aL80Rwo9ed917eFbaeua0B+3avv1wlFpgena6zd1BwpfwJSQhwVW3Lw8qoVnX6/ZVnapNv0/wKaG0avZKV71ZJbhOcLVttdrp9ths7P5QDieH1Vv7Plg4W1yRAyEDimYXK+EMhPiUPFtAXTV3gFHtAKOJK6DUL0arrwABDO15fQkl1yOMA+cTNrNzWp6rLtVtX/ZV21h9ZnV1qXcqNf7SbV3uPFV3UupwJybTlAjkRRgCJmYZsYgR8xhFJg1FZEsRQuMePfeEA5sBMAQiPYChJPl0COTtEbgQjBJnUwJSzyYam8WvxiCboRS5FwzozyhxDsJ/p4JDQR+jRL5BKbxhTsMbOom7IYKIWLPFgh67RwlUTgMEQuF3E5M3MdNNjDaPspR7MRB52E3M88Y/zFIQAwnMryWkQOcp8YgSD2tJ5n59UteiFkirKVzquyeZy9vXxWe6nZ+CW0Oc6qjByx4l49xhEyYX6KjxmBxn1qNTb270/gulaPKbxfhv2FZ1bb8d9/rwn2FE9o+C6w8=);strokeColor=none;strokeWidth=54;spacingTop=-3;spacingBottom=-3;spacingLeft=-3;spacingRight=-3;points=[];labelBackgroundColor=none;rounded=0;html=1;whiteSpace=wrap;" parent="20" vertex="1">
          <mxGeometry x="2" y="2" width="43" height="43" as="geometry" />
        </mxCell>
        <UserObject label="" tags="Background" id="23">
          <mxCell style="vsdxID=116;fillColor=none;gradientColor=none;points=[];labelBackgroundColor=none;rounded=0;strokeColor=none;html=1;whiteSpace=wrap;" parent="1" vertex="1">
            <mxGeometry x="262" y="186" width="50" height="50" as="geometry" />
          </mxCell>
        </UserObject>
        <mxCell id="24" style="vsdxID=108;fillColor=#d8d8d8;gradientColor=none;shape=stencil(nZBLDoAgDERP0z3SIyjew0SURgSD+Lu9kMZoXLhwN9O+tukAlrNpJg1SzDH4QW/URgNYgZTkjA4UkwJUgGXng+6DX1zLfmoymdXo17xh5zmRJ6Q42BWCfc2oJfdAr+Yv+AP9Cb7OJ3H/2JG1HNGz/84klThPVCc=);strokeColor=none;points=[[0,0.5,0],[1,0.5,0],[0.5,1,0],[0.5,0,0]];labelBackgroundColor=none;rounded=0;html=1;whiteSpace=wrap;" parent="23" vertex="1">
          <mxGeometry width="50" height="50" as="geometry" />
        </mxCell>
        <mxCell id="25" style="vsdxID=111;fillColor=none;gradientColor=none;image;aspect=fixed;image=data:image/png,iVBORw0KGgoAAAANSUhEUgAAAQIAAAEBCAIAAAAcuTypAAAJ5klEQVR4nO3dP44cxxXH8beGIgE2ZaYUbMDSARRKAsFIBxDgnFDiWAATn4EJAUEXIDYnoAMoEgxKIQ9ACrAhpgZpA07HQdmj4UxPd3XVq6r3Xn0/kUTtzvYS9dVv9l/vzeFwEGBuvxl9AcB4ZACQAUAGgJABIGQACBkAQgaAkAEgIu+NvgDUevjk9ehLMO320b3Nl7nhmyn8IoB86zGQgT+c/jIrJZCBJwRQbzEGPkR2gwbaYQ0cIABdl4PAGlhHA+ou/0rJwDQa6IMM7KKBbsjAKBpo6uyvlwwsooHOyMAcGuiPDAAyMIYpGIIMDKGBUcgAIAMzmIKByMAEGhiLDAAyMIApGI4MBqMBC8gAIIOhmAIjyAAgg3GYAjvIYAwaMIUMADIYgSmwhgx6owGDuJUvSnz56e8W//y7n/7V+UpUkEFXfqfg2rlffzEvVZBBPx4byDz9m69uvAcywLLKABYfzWwMZNCJoynQDeDykQ3GwGeKeqCBzm9iLzLAr7odUGsl8KSoORdT0P9cmnqCxBq0RQNm3/QpMpjd8IM4/AKEDJqyPwUWjqAYuAwyaIUGdhl7MWQAkEEbTEGBgZdEBvpooNioCyMDgAy0MQWVhlweGWiy3wAWkcFcjE9B0v8iyUANU+AXGehw0YCLKUg6XyoZAGSgwcUUYAUZ1PLSgKNnRP2RAYzq2S0ZVPEyBVhHBgAZVGAKwiCDQjQQCRkAZFCEKQim6j5F97/+Ues6HPnTH/8w+hKgbHcGcx59xLbvSRENMAUh7ciABmggqtwMaACBZWVAA8IUhLadAQ1IiAaM3Ds6X88L5usGwFYGTIGEmAKsYw020MAMyGAijj486HypZLCGKZgEGVwVsgEXg9D/IskAIIMrQk5BYnwQhlweGSwI3AAWkcGMzA7CqAsjg3OTTIHBEgZeEhm8Y5IGElMljL0YMgDI4MRUU5AYGYThl0EG/zNhA8nwIzj8AqTyzhSIIR3E/re8thBAwhqITDwFpzofSjsNCBngVLejaaoB4UmRMAXvav0EyVoAyewZ0MCiFjHYDCCZPQOs0IrBcgDJ1BkwBTmOh3hvD/ZP/9G8GdDAXpfH+jQMR4f+0rwZoJ7ro39q0k+YMgU4NWMGNIAzM2YAnJkuA6YAl+bKgAawaK4MgEUTZcAU4JpZMqABrJglA2DFFBn4nYI7v31/9CVMIX4G3hughA7iZ+DU6emnBHW3j+6d/mvwDJxOweW5p4SmImcQpoH1P0e9yBl4tH7WKUHF2TMiCZyBxynIOeWU0ELMDKI2sPclkSlmBu7sPdmUUOzyGZGEzMDdFJSdaUpQFC2DSRqof905LU6BxMvAl/pzTAn5rjUgwTLwNQVaJ5gS6sXJYM4GWjxaSCtTIJEycKTFqaWEFesNSJgMHE0B57WzzQYkTAZetGvg7b//0+iRXctpQGJk4GUKaKCzzAYkwD1MaYAGLuUHkERYA/tooKe9DYj3DFxMAQ30VNCAuH5SRAONHtmpsgAS32tgHA10U9OA+F0D+1NAA31UBpC4XAMaQKLSgPhdA8tooAOtAJKbw+Gw/hL3v/5R8e3VMz4FNNCabgDJ9pOiv33zmfpbLUYDk2vRgOSsQWJkEyxnQANNNQogyf0Q2cIm0MC0mjYg+WuQDNwEGphT6wCSfZ8wtbAJ1tBAO30akL1rkPTfBLNTQAONdAsgKfnyWedNoIHZdG5AytYg6bYJNjOggRb6B5CUfzPFzB8n0EALoxqQmjVIWm+CwSmgAXUDA0hqv7Vutk2gAXXDG5D6NUjabYKpNaABXRYCSHS+0XqGTaABXXYaEK01SFpsgpE1oAFFpgJINDOQBiVYyIAGtBgMIFH+6bN4z45oQIvZBkR9DRLdTRg4CDSgwnIASZOfRY6xCTSgwn4D0mgNEsVN6D8INFDPRQBJwztTKG7Cz3//h9ZD5aCBeo4akKZrkLjbBBqo5CuApPl9ihQ3ocPfLw1U8tiAdFiDpH4Tjjk9fPK6+nKW0UANpwEkne5aV7kJp6/e6K+bBmq4bkC6rUFStgmLCeluAg0Ue/7i1cvbB6OvolbXe5gWbMK1V1H83w8NFHv+4tXoS9DR+1a+u0pYf2GVEmigzPMXr8I0IEPuaJ1ZQs6LVZZAA2UiBZCMubH75hHPH43iEmigQLAROBr2+w1WDvreDyEKSqCBAiEDSEb+mo/F4172qdVdJdDAXlFH4Gjwb7s5O/Q1X17ILIEGdgkfQNL16wYdrH89gQZ2yQyArxuYs7IJNJBvkhE4ipaBXCmBBvJNFUASMAO5KIEGMs02AkcxM5CTEmgg05wBJGEzEJHbR/doIMe0I3AUOYPHz958ePemxSMHa2D0JYwX9teDP372Jv3Dh3dvfvmn5ieFwzRAAEcx1+DYQKK4CTQQUsA1OGsgUdmEGA0QwKVoa7DYQFK5CTQQWKg1WGkgKd6EAA0QwIo4a7DZQFKwCTQQXpA1yGwg2bUJ3hsggBwRMtjVQJJZgusGCCCf+ydFBQ0km8+OaGAevteguIFkZRP8NkAABRyvQWUDyeIm0MBsvK6BSgPJ2SY4bYAAanhdg7/++QPFRztuAg3MyWsGol3Ct3/5vccG+B5pFY4zEL0S0uO4uy0zAWjxnYFolHD6CF5KYAR0uc9A6kq4fF37JRCAuo37FD39/m3Bg371xZ3S6ylX8LmjlX7a/U6dGjYD4D5FhuzdhPWXN7gJNhuIIU4GsqeEnJe0UwIfCbQWKgPJO9/5tVgogQA6iJaBbJ3yvc+dBpbACHQTMAO5ftbLPqc0pAQC6ClmBrJ04ms+r9qzBEagv7AZyLvnvv6rbB1KIIBRImcg/z/9Wt9z0bQEAhgoeAai/R14LUpgBIaLn4E63RIIwAIyKKFSAiNgBxkUqjzBBGAKGZT4+OEPUnqUGQGDyGC31ECy90ATgE1ksM9pA0nmyWYELPN6Z4ohLhtI0vn+/JOPVv4rLCODXNcaOOK4+8WToiybDcA1MthGA+GRwQYamAEZrKGBSZDBVTQwDzIAyOAKpmAqZLAswC2okI8MADK4jkGYBxmsoYRJkMEGSpgBGWyjhPDIIAslxEYGuSghMDLYgRKiIoN9KCEkMtiNEuIhgxKUEAwZFKKESMigHCWEQQZVKCEGMqhFCQGQgQJK8I4MdFCCa03uWvf0+7ctHjbfV1/c6f9GX94+4Ec3nWINNLEJTpGBMkrwiAz0UYI7ZNAEJfhCBq1MUkKMd5MMGopxRGZABm1Rggtk0Bwl2EcGPUQtIcz7RQadhDkxIZFBP8FKiPTukEFXYY5OmHckIYPeAhygAO/CGTIYwPUxcn3x15DBGB4P08vbBx4vO0eTnzdAjqhHyqObw+Ew+hqAwXhSBJABQAaAiPwXR/v4+Uf+fQ0AAAAASUVORK5CYII=;strokeColor=none;points=[];labelBackgroundColor=none;rounded=0;html=1;whiteSpace=wrap;" parent="23" vertex="1">
          <mxGeometry x="3" y="3" width="43" height="43" as="geometry" />
        </mxCell>
        <UserObject label="" tags="Background" id="29">
          <mxCell style="vsdxID=118;fillColor=none;gradientColor=none;points=[];labelBackgroundColor=none;rounded=0;strokeColor=none;html=1;whiteSpace=wrap;" parent="1" vertex="1">
            <mxGeometry x="504" y="186" width="50" height="50" as="geometry" />
          </mxCell>
        </UserObject>
        <mxCell id="30" style="vsdxID=113;fillColor=#d8d8d8;gradientColor=none;shape=stencil(nZBLDoAgDERP0z3SIyjew0SURgSD+Lu9kMZoXLhwN9O+tukAlrNpJg1SzDH4QW/URgNYgZTkjA4UkwJUgGXng+6DX1zLfmoymdXo17xh5zmRJ6Q42BWCfc2oJfdAr+Yv+AP9Cb7OJ3H/2JG1HNGz/84klThPVCc=);strokeColor=none;points=[[0,0.5,0],[1,0.5,0],[0.5,1,0],[0.5,0,0]];labelBackgroundColor=none;rounded=0;html=1;whiteSpace=wrap;" parent="29" vertex="1">
          <mxGeometry width="50" height="50" as="geometry" />
        </mxCell>
        <mxCell id="31" style="vsdxID=114;fillColor=none;gradientColor=none;image;aspect=fixed;image=data:image/png,iVBORw0KGgoAAAANSUhEUgAAAQIAAAEBCAIAAAAcuTypAAAJ5klEQVR4nO3dP44cxxXH8beGIgE2ZaYUbMDSARRKAsFIBxDgnFDiWAATn4EJAUEXIDYnoAMoEgxKIQ9ACrAhpgZpA07HQdmj4UxPd3XVq6r3Xn0/kUTtzvYS9dVv9l/vzeFwEGBuvxl9AcB4ZACQAUAGgJABIGQACBkAQgaAkAEgIu+NvgDUevjk9ehLMO320b3Nl7nhmyn8IoB86zGQgT+c/jIrJZCBJwRQbzEGPkR2gwbaYQ0cIABdl4PAGlhHA+ou/0rJwDQa6IMM7KKBbsjAKBpo6uyvlwwsooHOyMAcGuiPDAAyMIYpGIIMDKGBUcgAIAMzmIKByMAEGhiLDAAyMIApGI4MBqMBC8gAIIOhmAIjyAAgg3GYAjvIYAwaMIUMADIYgSmwhgx6owGDuJUvSnz56e8W//y7n/7V+UpUkEFXfqfg2rlffzEvVZBBPx4byDz9m69uvAcywLLKABYfzWwMZNCJoynQDeDykQ3GwGeKeqCBzm9iLzLAr7odUGsl8KSoORdT0P9cmnqCxBq0RQNm3/QpMpjd8IM4/AKEDJqyPwUWjqAYuAwyaIUGdhl7MWQAkEEbTEGBgZdEBvpooNioCyMDgAy0MQWVhlweGWiy3wAWkcFcjE9B0v8iyUANU+AXGehw0YCLKUg6XyoZAGSgwcUUYAUZ1PLSgKNnRP2RAYzq2S0ZVPEyBVhHBgAZVGAKwiCDQjQQCRkAZFCEKQim6j5F97/+Ues6HPnTH/8w+hKgbHcGcx59xLbvSRENMAUh7ciABmggqtwMaACBZWVAA8IUhLadAQ1IiAaM3Ds6X88L5usGwFYGTIGEmAKsYw020MAMyGAijj486HypZLCGKZgEGVwVsgEXg9D/IskAIIMrQk5BYnwQhlweGSwI3AAWkcGMzA7CqAsjg3OTTIHBEgZeEhm8Y5IGElMljL0YMgDI4MRUU5AYGYThl0EG/zNhA8nwIzj8AqTyzhSIIR3E/re8thBAwhqITDwFpzofSjsNCBngVLejaaoB4UmRMAXvav0EyVoAyewZ0MCiFjHYDCCZPQOs0IrBcgDJ1BkwBTmOh3hvD/ZP/9G8GdDAXpfH+jQMR4f+0rwZoJ7ro39q0k+YMgU4NWMGNIAzM2YAnJkuA6YAl+bKgAawaK4MgEUTZcAU4JpZMqABrJglA2DFFBn4nYI7v31/9CVMIX4G3hughA7iZ+DU6emnBHW3j+6d/mvwDJxOweW5p4SmImcQpoH1P0e9yBl4tH7WKUHF2TMiCZyBxynIOeWU0ELMDKI2sPclkSlmBu7sPdmUUOzyGZGEzMDdFJSdaUpQFC2DSRqof905LU6BxMvAl/pzTAn5rjUgwTLwNQVaJ5gS6sXJYM4GWjxaSCtTIJEycKTFqaWEFesNSJgMHE0B57WzzQYkTAZetGvg7b//0+iRXctpQGJk4GUKaKCzzAYkwD1MaYAGLuUHkERYA/tooKe9DYj3DFxMAQ30VNCAuH5SRAONHtmpsgAS32tgHA10U9OA+F0D+1NAA31UBpC4XAMaQKLSgPhdA8tooAOtAJKbw+Gw/hL3v/5R8e3VMz4FNNCabgDJ9pOiv33zmfpbLUYDk2vRgOSsQWJkEyxnQANNNQogyf0Q2cIm0MC0mjYg+WuQDNwEGphT6wCSfZ8wtbAJ1tBAO30akL1rkPTfBLNTQAONdAsgKfnyWedNoIHZdG5AytYg6bYJNjOggRb6B5CUfzPFzB8n0EALoxqQmjVIWm+CwSmgAXUDA0hqv7Vutk2gAXXDG5D6NUjabYKpNaABXRYCSHS+0XqGTaABXXYaEK01SFpsgpE1oAFFpgJINDOQBiVYyIAGtBgMIFH+6bN4z45oQIvZBkR9DRLdTRg4CDSgwnIASZOfRY6xCTSgwn4D0mgNEsVN6D8INFDPRQBJwztTKG7Cz3//h9ZD5aCBeo4akKZrkLjbBBqo5CuApPl9ihQ3ocPfLw1U8tiAdFiDpH4Tjjk9fPK6+nKW0UANpwEkne5aV7kJp6/e6K+bBmq4bkC6rUFStgmLCeluAg0Ue/7i1cvbB6OvolbXe5gWbMK1V1H83w8NFHv+4tXoS9DR+1a+u0pYf2GVEmigzPMXr8I0IEPuaJ1ZQs6LVZZAA2UiBZCMubH75hHPH43iEmigQLAROBr2+w1WDvreDyEKSqCBAiEDSEb+mo/F4172qdVdJdDAXlFH4Gjwb7s5O/Q1X17ILIEGdgkfQNL16wYdrH89gQZ2yQyArxuYs7IJNJBvkhE4ipaBXCmBBvJNFUASMAO5KIEGMs02AkcxM5CTEmgg05wBJGEzEJHbR/doIMe0I3AUOYPHz958ePemxSMHa2D0JYwX9teDP372Jv3Dh3dvfvmn5ieFwzRAAEcx1+DYQKK4CTQQUsA1OGsgUdmEGA0QwKVoa7DYQFK5CTQQWKg1WGkgKd6EAA0QwIo4a7DZQFKwCTQQXpA1yGwg2bUJ3hsggBwRMtjVQJJZgusGCCCf+ydFBQ0km8+OaGAevteguIFkZRP8NkAABRyvQWUDyeIm0MBsvK6BSgPJ2SY4bYAAanhdg7/++QPFRztuAg3MyWsGol3Ct3/5vccG+B5pFY4zEL0S0uO4uy0zAWjxnYFolHD6CF5KYAR0uc9A6kq4fF37JRCAuo37FD39/m3Bg371xZ3S6ylX8LmjlX7a/U6dGjYD4D5FhuzdhPWXN7gJNhuIIU4GsqeEnJe0UwIfCbQWKgPJO9/5tVgogQA6iJaBbJ3yvc+dBpbACHQTMAO5ftbLPqc0pAQC6ClmBrJ04ms+r9qzBEagv7AZyLvnvv6rbB1KIIBRImcg/z/9Wt9z0bQEAhgoeAai/R14LUpgBIaLn4E63RIIwAIyKKFSAiNgBxkUqjzBBGAKGZT4+OEPUnqUGQGDyGC31ECy90ATgE1ksM9pA0nmyWYELPN6Z4ohLhtI0vn+/JOPVv4rLCODXNcaOOK4+8WToiybDcA1MthGA+GRwQYamAEZrKGBSZDBVTQwDzIAyOAKpmAqZLAswC2okI8MADK4jkGYBxmsoYRJkMEGSpgBGWyjhPDIIAslxEYGuSghMDLYgRKiIoN9KCEkMtiNEuIhgxKUEAwZFKKESMigHCWEQQZVKCEGMqhFCQGQgQJK8I4MdFCCa03uWvf0+7ctHjbfV1/c6f9GX94+4Ec3nWINNLEJTpGBMkrwiAz0UYI7ZNAEJfhCBq1MUkKMd5MMGopxRGZABm1Rggtk0Bwl2EcGPUQtIcz7RQadhDkxIZFBP8FKiPTukEFXYY5OmHckIYPeAhygAO/CGTIYwPUxcn3x15DBGB4P08vbBx4vO0eTnzdAjqhHyqObw+Ew+hqAwXhSBJABQAaAiPwXR/v4+Uf+fQ0AAAAASUVORK5CYII=;strokeColor=none;points=[];labelBackgroundColor=none;rounded=0;html=1;whiteSpace=wrap;" parent="29" vertex="1">
          <mxGeometry x="3" y="3" width="43" height="43" as="geometry" />
        </mxCell>
        <UserObject label="&lt;div style=&quot;font-size: 1px&quot;&gt;&lt;font style=&quot;font-size:12.7px;font-family:Segoe UI;color:#000000;direction:ltr;letter-spacing:0px;line-height:120%;opacity:1&quot;&gt;&lt;b&gt;Developer&lt;br/&gt;&lt;/b&gt;&lt;/font&gt;&lt;/div&gt;" tags="Background" id="33">
          <mxCell style="verticalAlign=middle;align=center;overflow=width;vsdxID=123;fillColor=none;gradientColor=none;shape=stencil(nZBLDoAgDERP0z3SIyjew0SURgSD+Lu9kMZoXLhwN9O+tukAlrNpJg1SzDH4QW/URgNYgZTkjA4UkwJUgGXng+6DX1zLfmoymdXo17xh5zmRJ6Q42BWCfc2oJfdAr+Yv+AP9Cb7OJ3H/2JG1HNGz/84klThPVCc=);strokeColor=none;points=[];labelBackgroundColor=none;rounded=0;html=1;whiteSpace=wrap;" parent="1" vertex="1">
            <mxGeometry x="25" y="230" width="76" height="32" as="geometry" />
          </mxCell>
        </UserObject>
        <UserObject label="&lt;div style=&quot;font-size: 1px&quot;&gt;&lt;font style=&quot;font-size:12.7px;font-family:Segoe UI;color:#000000;direction:ltr;letter-spacing:0px;line-height:120%;opacity:1&quot;&gt;&lt;b&gt;Repositories&lt;br/&gt;&lt;/b&gt;&lt;/font&gt;&lt;/div&gt;" tags="Background" id="34">
          <mxCell style="verticalAlign=middle;align=center;overflow=width;vsdxID=124;fillColor=none;gradientColor=none;shape=stencil(nZBLDoAgDERP0z3SIyjew0SURgSD+Lu9kMZoXLhwN9O+tukAlrNpJg1SzDH4QW/URgNYgZTkjA4UkwJUgGXng+6DX1zLfmoymdXo17xh5zmRJ6Q42BWCfc2oJfdAr+Yv+AP9Cb7OJ3H/2JG1HNGz/84klThPVCc=);strokeColor=none;points=[];labelBackgroundColor=none;rounded=0;html=1;whiteSpace=wrap;" parent="1" vertex="1">
            <mxGeometry x="116" y="230" width="95" height="32" as="geometry" />
          </mxCell>
        </UserObject>
        <UserObject label="&lt;div style=&quot;font-size: 1px&quot;&gt;&lt;font style=&quot;font-size:12.7px;font-family:Segoe UI;color:#000000;direction:ltr;letter-spacing:0px;line-height:120%;opacity:1&quot;&gt;&lt;b style=&quot;font-size: 12.7px;&quot;&gt;Azure Pipelines (CI)&lt;/b&gt;&lt;b&gt;&lt;/b&gt;&lt;/font&gt;&lt;/div&gt;" tags="Background" id="35">
          <mxCell style="verticalAlign=middle;align=center;overflow=width;vsdxID=125;fillColor=none;gradientColor=none;shape=stencil(nZBLDoAgDERP0z3SIyjew0SURgSD+Lu9kMZoXLhwN9O+tukAlrNpJg1SzDH4QW/URgNYgZTkjA4UkwJUgGXng+6DX1zLfmoymdXo17xh5zmRJ6Q42BWCfc2oJfdAr+Yv+AP9Cb7OJ3H/2JG1HNGz/84klThPVCc=);strokeColor=none;points=[];labelBackgroundColor=none;rounded=0;html=1;whiteSpace=wrap;" parent="1" vertex="1">
            <mxGeometry x="240" y="236" width="95" height="32" as="geometry" />
          </mxCell>
        </UserObject>
        <UserObject label="&lt;div style=&quot;font-size: 1px&quot;&gt;&lt;font style=&quot;font-size:12.7px;font-family:Segoe UI;color:#000000;direction:ltr;letter-spacing:0px;line-height:120%;opacity:1&quot;&gt;&lt;b&gt;Artifactory&lt;br&gt;&lt;/b&gt;&lt;/font&gt;&lt;/div&gt;" tags="Background" id="36">
          <mxCell style="verticalAlign=middle;align=center;overflow=width;vsdxID=126;fillColor=none;gradientColor=none;shape=stencil(nZBLDoAgDERP0z3SIyjew0SURgSD+Lu9kMZoXLhwN9O+tukAlrNpJg1SzDH4QW/URgNYgZTkjA4UkwJUgGXng+6DX1zLfmoymdXo17xh5zmRJ6Q42BWCfc2oJfdAr+Yv+AP9Cb7OJ3H/2JG1HNGz/84klThPVCc=);strokeColor=none;points=[];labelBackgroundColor=none;rounded=0;html=1;whiteSpace=wrap;" parent="1" vertex="1">
            <mxGeometry x="369" y="228" width="95" height="32" as="geometry" />
          </mxCell>
        </UserObject>
        <UserObject label="&lt;div style=&quot;font-size: 1px&quot;&gt;&lt;font style=&quot;font-size:12.7px;font-family:Segoe UI;color:#000000;direction:ltr;letter-spacing:0px;line-height:120%;opacity:1&quot;&gt;&lt;b&gt;Azure Pipelines (CD)&lt;br/&gt;&lt;/b&gt;&lt;/font&gt;&lt;/div&gt;" tags="Background" id="37">
          <mxCell style="verticalAlign=middle;align=center;overflow=width;vsdxID=127;fillColor=none;gradientColor=none;shape=stencil(nZBLDoAgDERP0z3SIyjew0SURgSD+Lu9kMZoXLhwN9O+tukAlrNpJg1SzDH4QW/URgNYgZTkjA4UkwJUgGXng+6DX1zLfmoymdXo17xh5zmRJ6Q42BWCfc2oJfdAr+Yv+AP9Cb7OJ3H/2JG1HNGz/84klThPVCc=);strokeColor=none;points=[];labelBackgroundColor=none;rounded=0;html=1;whiteSpace=wrap;" parent="1" vertex="1">
            <mxGeometry x="481" y="236" width="95" height="32" as="geometry" />
          </mxCell>
        </UserObject>
        <UserObject label="&lt;div style=&quot;&quot;&gt;&lt;p style=&quot;font-size: 1px; text-align: left; margin: 0px; text-indent: 0px; vertical-align: top; direction: ltr;&quot;&gt;&lt;br&gt;&lt;/p&gt;&lt;p style=&quot;font-size: 1px; margin: 0px; vertical-align: top; direction: ltr;&quot;&gt;&lt;font style=&quot;font-size: 11.29px; font-family: &amp;quot;Segoe UI&amp;quot;; direction: ltr; letter-spacing: 0px; line-height: 13.548px; opacity: 1;&quot;&gt;- Build&lt;/font&gt;&lt;/p&gt;&lt;p style=&quot;font-size: 1px; margin: 0px; vertical-align: top; direction: ltr;&quot;&gt;&lt;font style=&quot;font-size: 11.29px; font-family: &amp;quot;Segoe UI&amp;quot;; direction: ltr; letter-spacing: 0px; line-height: 13.548px; opacity: 1;&quot;&gt;- Package&lt;/font&gt;&lt;/p&gt;&lt;p style=&quot;font-size: 1px; margin: 0px; vertical-align: top; direction: ltr;&quot;&gt;&lt;font style=&quot;font-size: 11.29px; font-family: &amp;quot;Segoe UI&amp;quot;; direction: ltr; letter-spacing: 0px; line-height: 13.548px; opacity: 1;&quot;&gt;- Publish build&lt;/font&gt;&lt;/p&gt;&lt;p style=&quot;font-size: 1px; margin: 0px; vertical-align: top; direction: ltr;&quot;&gt;&lt;font style=&quot;font-size: 11.29px; font-family: &amp;quot;Segoe UI&amp;quot;; direction: ltr; letter-spacing: 0px; line-height: 13.548px; opacity: 1;&quot;&gt;&amp;nbsp; &amp;nbsp;as&amp;nbsp;&lt;/font&gt;&lt;font style=&quot;font-size: 11.29px; font-family: &amp;quot;Segoe UI&amp;quot;; direction: ltr; letter-spacing: 0px; line-height: 13.548px; opacity: 1;&quot;&gt;artifacts&lt;/font&gt;&lt;/p&gt;&lt;/div&gt;" tags="Background" id="38">
          <mxCell style="verticalAlign=top;align=left;overflow=width;vsdxID=128;fillColor=none;gradientColor=none;shape=stencil(nZBLDoAgDERP0z3SIyjew0SURgSD+Lu9kMZoXLhwN9O+tukAlrNpJg1SzDH4QW/URgNYgZTkjA4UkwJUgGXng+6DX1zLfmoymdXo17xh5zmRJ6Q42BWCfc2oJfdAr+Yv+AP9Cb7OJ3H/2JG1HNGz/84klThPVCc=);strokeColor=none;points=[];labelBackgroundColor=none;rounded=0;html=1;whiteSpace=wrap;" parent="1" vertex="1">
            <mxGeometry x="233" y="275" width="132" height="45" as="geometry" />
          </mxCell>
        </UserObject>
        <UserObject label="&lt;div style=&quot;font-size: 1px&quot;&gt;&lt;p style=&quot;text-align:left;margin-left:0;margin-right:0;margin-top:0px;margin-bottom:0px;text-indent:0;vertical-align:top;direction:ltr;&quot;&gt;&lt;br&gt;&lt;/p&gt;&lt;p style=&quot;text-align:left;margin-left:0;margin-right:0;margin-top:0px;margin-bottom:0px;text-indent:0;vertical-align:top;direction:ltr;&quot;&gt;&lt;font style=&quot;font-size:11.29px;font-family:Segoe UI;color:#000000;direction:ltr;letter-spacing:0px;line-height:120%;opacity:1&quot;&gt;- Publish build&lt;br&gt;&amp;nbsp; &amp;nbsp;to JFrog Artifactory&lt;/font&gt;&lt;/p&gt;&lt;/div&gt;" tags="Background" id="39">
          <mxCell style="verticalAlign=top;align=left;overflow=width;vsdxID=129;fillColor=none;gradientColor=none;shape=stencil(nZBLDoAgDERP0z3SIyjew0SURgSD+Lu9kMZoXLhwN9O+tukAlrNpJg1SzDH4QW/URgNYgZTkjA4UkwJUgGXng+6DX1zLfmoymdXo17xh5zmRJ6Q42BWCfc2oJfdAr+Yv+AP9Cb7OJ3H/2JG1HNGz/84klThPVCc=);strokeColor=none;points=[];labelBackgroundColor=none;rounded=0;html=1;whiteSpace=wrap;" parent="1" vertex="1">
            <mxGeometry x="368" y="275" width="112" height="119" as="geometry" />
          </mxCell>
        </UserObject>
        <UserObject label="&lt;div style=&quot;font-size: 1px&quot;&gt;&lt;p style=&quot;text-align:left;margin-left:0;margin-right:0;margin-top:0px;margin-bottom:0px;text-indent:0;vertical-align:top;direction:ltr;&quot;&gt;&lt;font style=&quot;font-size:11.29px;font-family:Segoe UI;color:#000000;direction:ltr;letter-spacing:0px;line-height:120%;opacity:1&quot;&gt;- Download artifacts&lt;/font&gt;&lt;/p&gt;&lt;p style=&quot;text-align:left;margin-left:0;margin-right:0;margin-top:0px;margin-bottom:0px;text-indent:0;vertical-align:top;direction:ltr;&quot;&gt;&lt;font style=&quot;font-size:11.29px;font-family:Segoe UI;color:#000000;direction:ltr;letter-spacing:0px;line-height:120%;opacity:1&quot;&gt;- Connect to Az Cloud&amp;nbsp;&lt;/font&gt;&lt;/p&gt;&lt;p style=&quot;text-align:left;margin-left:0;margin-right:0;margin-top:0px;margin-bottom:0px;text-indent:0;vertical-align:top;direction:ltr;&quot;&gt;&lt;font style=&quot;font-size:11.29px;font-family:Segoe UI;color:#000000;direction:ltr;letter-spacing:0px;line-height:120%;opacity:1&quot;&gt;- Deploy to Azure app&amp;nbsp;&lt;br&gt;&lt;br&gt;&lt;/font&gt;&lt;/p&gt;&lt;/div&gt;" tags="Background" id="40">
          <mxCell style="verticalAlign=top;align=left;overflow=width;vsdxID=130;fillColor=none;gradientColor=none;shape=stencil(nZBLDoAgDERP0z3SIyjew0SURgSD+Lu9kMZoXLhwN9O+tukAlrNpJg1SzDH4QW/URgNYgZTkjA4UkwJUgGXng+6DX1zLfmoymdXo17xh5zmRJ6Q42BWCfc2oJfdAr+Yv+AP9Cb7OJ3H/2JG1HNGz/84klThPVCc=);strokeColor=none;points=[];labelBackgroundColor=none;rounded=0;html=1;whiteSpace=wrap;" parent="1" vertex="1">
            <mxGeometry x="480" y="271" width="132" height="119" as="geometry" />
          </mxCell>
        </UserObject>
        <UserObject label="" tags="Background" id="77">
          <mxCell style="vsdxID=274;fillColor=none;gradientColor=none;shape=stencil(rVFbDsIgEDwNnyQU4glqvcfGblsilmZBS28vZGMsxg9j/JvZmX1kR5g2TLCg0CpE8hdcbR8nYY5CaztPSDZmJEwnTDt4wpH8be6ZL1CcBV39vUxI3KdKh1YbswPTEzuBzlmiVGmKau9zUKM+jlJJQrJBko8QrZ+rrQ5oRJnXyMHBWElhRVx25ebnw/5zVvPFWRm83jxY5zilvf4eSy5xpKZ7AA==);strokeColor=none;points=[[0.5,0,0],[0.5,0.5,0],[0,0.5,0],[0.5,1,0],[1,0.5,0],[0.15,0.85,0],[0.85,0.85,0],[0.85,0.15,0],[0.15,0.15,0]];labelBackgroundColor=none;rounded=0;html=1;whiteSpace=wrap;" parent="1" vertex="1">
            <mxGeometry x="346" y="209" width="6" height="6" as="geometry" />
          </mxCell>
        </UserObject>
        <UserObject label="" tags="Background" id="78">
          <mxCell style="vsdxID=277;fillColor=none;gradientColor=none;shape=stencil(rVFbDsIgEDwNnyQU4glqvcfGblsilmZBS28vZGMsxg9j/JvZmX1kR5g2TLCg0CpE8hdcbR8nYY5CaztPSDZmJEwnTDt4wpH8be6ZL1CcBV39vUxI3KdKh1YbswPTEzuBzlmiVGmKau9zUKM+jlJJQrJBko8QrZ+rrQ5oRJnXyMHBWElhRVx25ebnw/5zVvPFWRm83jxY5zilvf4eSy5xpKZ7AA==);strokeColor=none;points=[[0.5,0,0],[0.5,0.5,0],[0,0.5,0],[0.5,1,0],[1,0.5,0],[0.15,0.85,0],[0.85,0.85,0],[0.85,0.15,0],[0.15,0.15,0]];labelBackgroundColor=none;rounded=0;html=1;whiteSpace=wrap;" parent="1" vertex="1">
            <mxGeometry x="463" y="209" width="6" height="6" as="geometry" />
          </mxCell>
        </UserObject>
        <UserObject label="" tags="Background" id="87">
          <mxCell style="vsdxID=301;fillColor=#FFFFFF;gradientColor=none;fillOpacity=60;strokeOpacity=60;shape=stencil(vZTbbsMgDIafhstYHBIC1133HmglCVoWIkLX7O0HI1XrSq00qdudDz/mk7EhYrcMZraE0yUG/25P7hAHIl4I524abHAxWUTsidh1Ptg++ON0KP5ssjJbH/4zV1jLOSaAyXyK068tQumP/1rkJrylXDjLuYS2yMOm540CXZfYikucS3IFUm+KyqxuqYKPJjo/lfymHk3obZUurLrR9Ci1nKydr8LsPqLiUEuMyKSCRiBE1UCtECR9KuCjHgoN7Q1h5pENIsyqFreRgWb/Rsk5bG2+UNaJSSFK/NCtAvrch35AmEZRaQzY1KAlHsW78/0nozi66TfLlYzLYnZuHMteX+dvFzmFyicg9t8=);strokeColor=none;spacingTop=-3;spacingBottom=-3;spacingLeft=-3;spacingRight=-3;points=[];labelBackgroundColor=none;rounded=0;html=1;whiteSpace=wrap;" parent="1" vertex="1">
            <mxGeometry x="730" y="88" width="14" height="7" as="geometry" />
          </mxCell>
        </UserObject>
        <UserObject label="" tags="Background" id="88">
          <mxCell style="vsdxID=302;fillColor=#FFFFFF;gradientColor=none;fillOpacity=60;strokeOpacity=60;shape=stencil(tZPBcoMgEIafhqM7wgrCOU3fg0lQmVrJoGns2xcLToJpOj00t91/f9Zvdl2Cu7HTJ0NYOU7evZmLPU4dwRfCmB064+0UIoJ7grvGedN6dx6OMT/pxblE7+5j6TDHdyhAquUVKz+jUn5nr9Gs/SFUfDLXCkFEs0/uigmgSZtvG6ztBAOOqV7o2Y6Fd5OerBsyd699a4rwuaLpdZuVxosxpzv5R0CsauAqJ6RSgOAZIQsukVHKCir1PMrD2ceh08TJrwBJkgqUTAQszRaB0uRKkqpArZwYJc6SJeW0/HWDNSBuVyi3K1x7rOOhNVD5r+OhjxkpY3dLFBwkZoiPftynAPZ2+PvNhOB6bY3t+3ist/XtdQYpXjbuvwA=);strokeColor=none;spacingTop=-3;spacingBottom=-3;spacingLeft=-3;spacingRight=-3;points=[];labelBackgroundColor=none;rounded=0;html=1;whiteSpace=wrap;" parent="1" vertex="1">
            <mxGeometry x="725" y="100" width="3" height="6" as="geometry" />
          </mxCell>
        </UserObject>
        <UserObject label="" tags="Background" id="89">
          <mxCell style="vsdxID=303;fillColor=#f2f2f2;gradientColor=none;fillOpacity=55;strokeOpacity=55;shape=stencil(tZPbbsMgDIafhssgwCFk1133HqglCRoLEaFr+vaDkR5cKReT1jvj34cvsU1gNw96MkSwOQb/ac72GAcC70QIOw4m2JgsAnsCu84H0wd/Go/lPekcma0v/50rLCWPM5ZzBLuUt2qoan49HyVch0NSwxreKEZFWzLCmgIcqCg516oNp7VEddcuS6UXO1fBRx2tH5HmdOhNlfpVndM9kuazMdODm28T1lLeel8JBRe0xYT4q0Hd9f8hZNuEirX0TT39Q+AUJCJMnrZGlLdZvZ6RS0aBY8Y8eoy4vTwvGbSz4182Nxn3re+sc+VoHvXnK0mucmGw/wE=);strokeColor=none;spacingTop=-3;spacingBottom=-3;spacingLeft=-3;spacingRight=-3;points=[];labelBackgroundColor=none;rounded=0;html=1;whiteSpace=wrap;" parent="1" vertex="1">
            <mxGeometry x="725" y="89" width="2" height="5" as="geometry" />
          </mxCell>
        </UserObject>
        <UserObject label="" tags="Background" id="91">
          <mxCell style="vsdxID=305;fillColor=#f2f2f2;gradientColor=none;fillOpacity=55;strokeOpacity=55;shape=stencil(vZTRTsQgEEW/hsdOgAFKn9f1P4hLW2ItDUV3/Xup1HWp0Wji7tt0Zi49GYZLcDf3ZrKE0zkG/2iP7hB7gneEczf2NriYIoJ7grvWB9sF/zwe8vdkls4levIvywmnrNMKZL2oOH3NmQaByffMfRaY8JCqYRUIAZRlQVgVkoNSObU2MUqLM6UE/OiozMnNVfDRROfHXF+7BxM6W6X/Ve1guqI0H62dLtLse0LeSFCiRESJULOCEWugqqCktyJUGhgvATUDWfKVE+QC6lvhIU8D3PChbkDqcoAKaLk6ioP+V0j6AyRloHADqSjoElJ/ueXzbl6fUaQ51pu3Is67+YsXeJXLHtz4NwNIwad9tG4Ysvtc1rd2k1LZqnD/Bg==);strokeColor=none;spacingTop=-3;spacingBottom=-3;spacingLeft=-3;spacingRight=-3;points=[];labelBackgroundColor=none;rounded=0;html=1;whiteSpace=wrap;" parent="1" vertex="1">
            <mxGeometry x="729" y="100" width="5" height="4" as="geometry" />
          </mxCell>
        </UserObject>
        <UserObject label="" tags="Background" id="92">
          <mxCell style="vsdxID=306;fillColor=#f2f2f2;gradientColor=none;fillOpacity=55;strokeOpacity=55;shape=stencil(vZTRboMwDEW/Jo9YtgOEPHfdf0RrgGgMqsDW7u8HCpQGqZ0mdX0zvrnmyJYt5K6vzdEKxn7w3bs9ucNQC/kimF1bW++GMRJyL+Su7LytfPfZHsL30Uwvp+ij+5oqnINPIWg5uRi/Q4YRKGReg8H4t1H1s4FzhJSCw88WlWWAc5X5GRFgHtXFWU/M2fWJ7wYzuK6NtMb4yibj/5KyMVUk9Sdrj1dpuk1YgEpjPs5A/oaXg+ZnEUoFeoNIhIAUMWLEV6Sg6VmArNWlPwthkRNwERGqFEhHlISPHTPeZiRVXHgWxozytUsbooUwA/XYQd9h5FQvy7QuCzNIjvt4Zwn/ZdqNa/92A8ZgvSCla5pwgK717cUZU+Fayf0P);strokeColor=none;spacingTop=-3;spacingBottom=-3;spacingLeft=-3;spacingRight=-3;points=[];labelBackgroundColor=none;rounded=0;html=1;whiteSpace=wrap;" parent="1" vertex="1">
            <mxGeometry x="739" y="104" width="6" height="2" as="geometry" />
          </mxCell>
        </UserObject>
        <UserObject label="" tags="Background" id="96">
          <mxCell style="vsdxID=310;fillColor=#f2f2f2;gradientColor=none;fillOpacity=55;strokeOpacity=55;shape=stencil(rVTLbsMgEPwaH70Cloc5p+l/oAQnqK4dYadx/r64QGuqNlWq3GB2ZlmWYSvcjEdzshUj4+SHF3tx++lY4VPFmOuP1rsprCrcVrhpB28Pfjj3+7g/mYW5rF6HtyXDHHWUkEXDyDXuOQHOP5DnSO9cv6I3DDgtBEiBigcKpALkhYCFFDf4HJDdwRcUmCz4lIDG3wVcgeL3CJABLU8ga7LxuxDxuT8N8JiL+MTWEqiK0LzW52yCAMvx2sxurP0wmckNfcHujD/YOpxWt505FKHxYu1pBdN1fbuzjwahqcFAUoHXhAgOMnVkZikDA5HvnCARbpbLxMTSkL2QEMngRicZAi3fVopczc9vRUAVfCWy/R7CbxB0WVD+P/+jl17giKBEaQauKMimcIMOjdXll9Kff+ZBjrhxqT8nRlh8TZvWdV0cVuv49+kUoDjZcPsO);strokeColor=none;spacingTop=-3;spacingBottom=-3;spacingLeft=-3;spacingRight=-3;points=[];labelBackgroundColor=none;rounded=0;html=1;whiteSpace=wrap;" parent="1" vertex="1">
            <mxGeometry x="744" y="99" width="2" height="2" as="geometry" />
          </mxCell>
        </UserObject>
        <UserObject label="" tags="Background" id="111">
          <mxCell style="vsdxID=424;fillColor=#FFFFFF;gradientColor=none;fillOpacity=60;strokeOpacity=60;shape=stencil(vZTbbsMgDIafhstYHBIC1133HmglCVoWIkLX7O0HI1XrSq00qdudDz/mk7EhYrcMZraE0yUG/25P7hAHIl4I524abHAxWUTsidh1Ptg++ON0KP5ssjJbH/4zV1jLOSaAyXyK068tQumP/1rkJrylXDjLuYS2yMOm540CXZfYikucS3IFUm+KyqxuqYKPJjo/lfymHk3obZUurLrR9Ci1nKydr8LsPqLiUEuMyKSCRiBE1UCtECR9KuCjHgoN7Q1h5pENIsyqFreRgWb/Rsk5bG2+UNaJSSFK/NCtAvrch35AmEZRaQzY1KAlHsW78/0nozi66TfLlYzLYnZuHMteX+dvFzmFyicg9t8=);strokeColor=none;spacingTop=-3;spacingBottom=-3;spacingLeft=-3;spacingRight=-3;points=[];labelBackgroundColor=none;rounded=0;html=1;whiteSpace=wrap;" parent="1" vertex="1">
            <mxGeometry x="730" y="254" width="14" height="7" as="geometry" />
          </mxCell>
        </UserObject>
        <UserObject label="" tags="Background" id="112">
          <mxCell style="vsdxID=425;fillColor=#FFFFFF;gradientColor=none;fillOpacity=60;strokeOpacity=60;shape=stencil(tZPBcoMgEIafhqM7wgrCOU3fg0lQmVrJoGns2xcLToJpOj00t91/f9Zvdl2Cu7HTJ0NYOU7evZmLPU4dwRfCmB064+0UIoJ7grvGedN6dx6OMT/pxblE7+5j6TDHdyhAquUVKz+jUn5nr9Gs/SFUfDLXCkFEs0/uigmgSZtvG6ztBAOOqV7o2Y6Fd5OerBsyd699a4rwuaLpdZuVxosxpzv5R0CsauAqJ6RSgOAZIQsukVHKCir1PMrD2ceh08TJrwBJkgqUTAQszRaB0uRKkqpArZwYJc6SJeW0/HWDNSBuVyi3K1x7rOOhNVD5r+OhjxkpY3dLFBwkZoiPftynAPZ2+PvNhOB6bY3t+3ist/XtdQYpXjbuvwA=);strokeColor=none;spacingTop=-3;spacingBottom=-3;spacingLeft=-3;spacingRight=-3;points=[];labelBackgroundColor=none;rounded=0;html=1;whiteSpace=wrap;" parent="1" vertex="1">
            <mxGeometry x="725" y="266" width="3" height="6" as="geometry" />
          </mxCell>
        </UserObject>
        <UserObject label="" tags="Background" id="113">
          <mxCell style="vsdxID=426;fillColor=#f2f2f2;gradientColor=none;fillOpacity=55;strokeOpacity=55;shape=stencil(tZPbbsMgDIafhssgwCFk1133HqglCRoLEaFr+vaDkR5cKReT1jvj34cvsU1gNw96MkSwOQb/ac72GAcC70QIOw4m2JgsAnsCu84H0wd/Go/lPekcma0v/50rLCWPM5ZzBLuUt2qoan49HyVch0NSwxreKEZFWzLCmgIcqCg516oNp7VEddcuS6UXO1fBRx2tH5HmdOhNlfpVndM9kuazMdODm28T1lLeel8JBRe0xYT4q0Hd9f8hZNuEirX0TT39Q+AUJCJMnrZGlLdZvZ6RS0aBY8Y8eoy4vTwvGbSz4182Nxn3re+sc+VoHvXnK0mucmGw/wE=);strokeColor=none;spacingTop=-3;spacingBottom=-3;spacingLeft=-3;spacingRight=-3;points=[];labelBackgroundColor=none;rounded=0;html=1;whiteSpace=wrap;" parent="1" vertex="1">
            <mxGeometry x="725" y="255" width="2" height="5" as="geometry" />
          </mxCell>
        </UserObject>
        <UserObject label="" tags="Background" id="115">
          <mxCell style="vsdxID=428;fillColor=#f2f2f2;gradientColor=none;fillOpacity=55;strokeOpacity=55;shape=stencil(vZTRTsQgEEW/hsdOgAFKn9f1P4hLW2ItDUV3/Xup1HWp0Wji7tt0Zi49GYZLcDf3ZrKE0zkG/2iP7hB7gneEczf2NriYIoJ7grvWB9sF/zwe8vdkls4levIvywmnrNMKZL2oOH3NmQaByffMfRaY8JCqYRUIAZRlQVgVkoNSObU2MUqLM6UE/OiozMnNVfDRROfHXF+7BxM6W6X/Ve1guqI0H62dLtLse0LeSFCiRESJULOCEWugqqCktyJUGhgvATUDWfKVE+QC6lvhIU8D3PChbkDqcoAKaLk6ioP+V0j6AyRloHADqSjoElJ/ueXzbl6fUaQ51pu3Is67+YsXeJXLHtz4NwNIwad9tG4Ysvtc1rd2k1LZqnD/Bg==);strokeColor=none;spacingTop=-3;spacingBottom=-3;spacingLeft=-3;spacingRight=-3;points=[];labelBackgroundColor=none;rounded=0;html=1;whiteSpace=wrap;" parent="1" vertex="1">
            <mxGeometry x="729" y="266" width="5" height="4" as="geometry" />
          </mxCell>
        </UserObject>
        <UserObject label="" tags="Background" id="116">
          <mxCell style="vsdxID=429;fillColor=#f2f2f2;gradientColor=none;fillOpacity=55;strokeOpacity=55;shape=stencil(vZTRboMwDEW/Jo9YtgOEPHfdf0RrgGgMqsDW7u8HCpQGqZ0mdX0zvrnmyJYt5K6vzdEKxn7w3bs9ucNQC/kimF1bW++GMRJyL+Su7LytfPfZHsL30Uwvp+ij+5oqnINPIWg5uRi/Q4YRKGReg8H4t1H1s4FzhJSCw88WlWWAc5X5GRFgHtXFWU/M2fWJ7wYzuK6NtMb4yibj/5KyMVUk9Sdrj1dpuk1YgEpjPs5A/oaXg+ZnEUoFeoNIhIAUMWLEV6Sg6VmArNWlPwthkRNwERGqFEhHlISPHTPeZiRVXHgWxozytUsbooUwA/XYQd9h5FQvy7QuCzNIjvt4Zwn/ZdqNa/92A8ZgvSCla5pwgK717cUZU+Fayf0P);strokeColor=none;spacingTop=-3;spacingBottom=-3;spacingLeft=-3;spacingRight=-3;points=[];labelBackgroundColor=none;rounded=0;html=1;whiteSpace=wrap;" parent="1" vertex="1">
            <mxGeometry x="739" y="271" width="6" height="2" as="geometry" />
          </mxCell>
        </UserObject>
        <UserObject label="" tags="Background" id="120">
          <mxCell style="vsdxID=433;fillColor=#f2f2f2;gradientColor=none;fillOpacity=55;strokeOpacity=55;shape=stencil(rVTLbsMgEPwaH70Cloc5p+l/oAQnqK4dYadx/r64QGuqNlWq3GB2ZlmWYSvcjEdzshUj4+SHF3tx++lY4VPFmOuP1rsprCrcVrhpB28Pfjj3+7g/mYW5rF6HtyXDHHWUkEXDyDXuOQHOP5DnSO9cv6I3DDgtBEiBigcKpALkhYCFFDf4HJDdwRcUmCz4lIDG3wVcgeL3CJABLU8ga7LxuxDxuT8N8JiL+MTWEqiK0LzW52yCAMvx2sxurP0wmckNfcHujD/YOpxWt505FKHxYu1pBdN1fbuzjwahqcFAUoHXhAgOMnVkZikDA5HvnCARbpbLxMTSkL2QEMngRicZAi3fVopczc9vRUAVfCWy/R7CbxB0WVD+P/+jl17giKBEaQauKMimcIMOjdXll9Kff+ZBjrhxqT8nRlh8TZvWdV0cVuv49+kUoDjZcPsO);strokeColor=none;spacingTop=-3;spacingBottom=-3;spacingLeft=-3;spacingRight=-3;points=[];labelBackgroundColor=none;rounded=0;html=1;whiteSpace=wrap;" parent="1" vertex="1">
            <mxGeometry x="744" y="265" width="2" height="2" as="geometry" />
          </mxCell>
        </UserObject>
        <UserObject label="" tags="Background" id="146">
          <mxCell style="vsdxID=497;fillColor=none;gradientColor=none;shape=stencil(rVFbDsIgEDwNnyQU4glqvcfGblsilmZBS28vZGMsxg9j/JvZmX1kR5g2TLCg0CpE8hdcbR8nYY5CaztPSDZmJEwnTDt4wpH8be6ZL1CcBV39vUxI3KdKh1YbswPTEzuBzlmiVGmKau9zUKM+jlJJQrJBko8QrZ+rrQ5oRJnXyMHBWElhRVx25ebnw/5zVvPFWRm83jxY5zilvf4eSy5xpKZ7AA==);strokeColor=none;points=[[0.5,0,0],[0.5,0.5,0],[0,0.5,0],[0.5,1,0],[1,0.5,0],[0.15,0.85,0],[0.85,0.85,0],[0.85,0.15,0],[0.15,0.15,0]];labelBackgroundColor=none;rounded=0;html=1;whiteSpace=wrap;" parent="1" vertex="1">
            <mxGeometry x="343" y="133" width="6" height="6" as="geometry" />
          </mxCell>
        </UserObject>
        <UserObject label="&lt;div style=&quot;font-size: 1px&quot;&gt;&lt;font style=&quot;font-size:16.93px;font-family:Segoe UI;color:#feffff;direction:ltr;letter-spacing:0px;line-height:120%;opacity:1&quot;&gt;&lt;b&gt;1&lt;br/&gt;&lt;/b&gt;&lt;/font&gt;&lt;/div&gt;" tags="Background" id="147">
          <mxCell style="verticalAlign=middle;align=center;overflow=width;vsdxID=1000;fillColor=#107c10;gradientColor=none;shape=stencil(vVHLDsIgEPwajiQI6RfU+h8bu22JCGRB2/69kG1iazx58DazM/vIjjBtmiCi0CplCjecbZ8nYc5Ca+snJJsLEqYTph0C4Ujh4XvmEaqzont41gkL96naodXKrGF6YSfQtUi0OXXDVlqPfJNP6usotUhYbJIUMmQb/GGrAxpRljVycDBuc1hKM2LclX8/7H9nFfB+82Cd45T2+mcspcSRmu4F);strokeColor=#70ad47;points=[];labelBackgroundColor=none;rounded=0;html=1;whiteSpace=wrap;" parent="1" vertex="1">
            <mxGeometry x="208" y="171" width="32" height="29" as="geometry" />
          </mxCell>
        </UserObject>
        <UserObject label="&lt;div style=&quot;font-size: 1px&quot;&gt;&lt;font style=&quot;font-size:16.93px;font-family:Segoe UI;color:#feffff;direction:ltr;letter-spacing:0px;line-height:120%;opacity:1&quot;&gt;&lt;b&gt;2&lt;br/&gt;&lt;/b&gt;&lt;/font&gt;&lt;/div&gt;" tags="Background" id="148">
          <mxCell style="verticalAlign=middle;align=center;overflow=width;vsdxID=1001;fillColor=#107c10;gradientColor=none;shape=stencil(vVHLDsIgEPwajiQI6RfU+h8bu22JCGRB2/69kG1iazx58DazM/vIjjBtmiCi0CplCjecbZ8nYc5Ca+snJJsLEqYTph0C4Ujh4XvmEaqzont41gkL96naodXKrGF6YSfQtUi0OXXDVlqPfJNP6usotUhYbJIUMmQb/GGrAxpRljVycDBuc1hKM2LclX8/7H9nFfB+82Cd45T2+mcspcSRmu4F);strokeColor=#70ad47;points=[];labelBackgroundColor=none;rounded=0;html=1;whiteSpace=wrap;" parent="1" vertex="1">
            <mxGeometry x="326" y="171" width="34" height="29" as="geometry" />
          </mxCell>
        </UserObject>
        <UserObject label="&lt;div style=&quot;font-size: 1px&quot;&gt;&lt;font style=&quot;font-size:16.93px;font-family:Segoe UI;color:#feffff;direction:ltr;letter-spacing:0px;line-height:120%;opacity:1&quot;&gt;&lt;b&gt;3&lt;br/&gt;&lt;/b&gt;&lt;/font&gt;&lt;/div&gt;" tags="Background" id="149">
          <mxCell style="verticalAlign=middle;align=center;overflow=width;vsdxID=1002;fillColor=#107c10;gradientColor=none;shape=stencil(vVHLDsIgEPwajiQI6RfU+h8bu22JCGRB2/69kG1iazx58DazM/vIjjBtmiCi0CplCjecbZ8nYc5Ca+snJJsLEqYTph0C4Ujh4XvmEaqzont41gkL96naodXKrGF6YSfQtUi0OXXDVlqPfJNP6usotUhYbJIUMmQb/GGrAxpRljVycDBuc1hKM2LclX8/7H9nFfB+82Cd45T2+mcspcSRmu4F);strokeColor=#70ad47;points=[];labelBackgroundColor=none;rounded=0;html=1;whiteSpace=wrap;" parent="1" vertex="1">
            <mxGeometry x="448" y="171" width="32" height="29" as="geometry" />
          </mxCell>
        </UserObject>
        <UserObject label="&lt;div style=&quot;font-size: 1px&quot;&gt;&lt;font style=&quot;font-size:16.93px;font-family:Segoe UI;color:#feffff;direction:ltr;letter-spacing:0px;line-height:120%;opacity:1&quot;&gt;&lt;b&gt;4&lt;br/&gt;&lt;/b&gt;&lt;/font&gt;&lt;/div&gt;" tags="Background" id="150">
          <mxCell style="verticalAlign=middle;align=center;overflow=width;vsdxID=1003;fillColor=#107c10;gradientColor=none;shape=stencil(vVHLDsIgEPwajiQI6RfU+h8bu22JCGRB2/69kG1iazx58DazM/vIjjBtmiCi0CplCjecbZ8nYc5Ca+snJJsLEqYTph0C4Ujh4XvmEaqzont41gkL96naodXKrGF6YSfQtUi0OXXDVlqPfJNP6usotUhYbJIUMmQb/GGrAxpRljVycDBuc1hKM2LclX8/7H9nFfB+82Cd45T2+mcspcSRmu4F);strokeColor=#70ad47;points=[];labelBackgroundColor=none;rounded=0;html=1;whiteSpace=wrap;" parent="1" vertex="1">
            <mxGeometry x="586" y="146" width="34" height="34" as="geometry" />
          </mxCell>
        </UserObject>
        <UserObject label="&lt;div style=&quot;font-size: 1px&quot;&gt;&lt;font style=&quot;font-size:16.93px;font-family:Segoe UI;color:#feffff;direction:ltr;letter-spacing:0px;line-height:120%;opacity:1&quot;&gt;&lt;b&gt;5&lt;br/&gt;&lt;/b&gt;&lt;/font&gt;&lt;/div&gt;" tags="Background" id="151">
          <mxCell style="verticalAlign=middle;align=center;overflow=width;vsdxID=1004;fillColor=#107c10;gradientColor=none;shape=stencil(vVHLDsIgEPwajiQI6RfU+h8bu22JCGRB2/69kG1iazx58DazM/vIjjBtmiCi0CplCjecbZ8nYc5Ca+snJJsLEqYTph0C4Ujh4XvmEaqzont41gkL96naodXKrGF6YSfQtUi0OXXDVlqPfJNP6usotUhYbJIUMmQb/GGrAxpRljVycDBuc1hKM2LclX8/7H9nFfB+82Cd45T2+mcspcSRmu4F);strokeColor=#70ad47;points=[];labelBackgroundColor=none;rounded=0;html=1;whiteSpace=wrap;" parent="1" vertex="1">
            <mxGeometry x="586" y="229" width="34" height="31" as="geometry" />
          </mxCell>
        </UserObject>
        <UserObject label="" tags="Background" id="154">
          <mxCell style="vsdxID=176;fillColor=none;gradientColor=none;image;aspect=fixed;image=data:image/png,iVBORw0KGgoAAAANSUhEUgAABqYAAAODCAYAAADetLAsAAAAAXNSR0IArs4c6QAAAARnQU1BAACxjwv8YQUAAAAJcEhZcwAADsMAAA7DAcdvqGQAAHBxSURBVHhe7d3NseRG1iboEIEaTFpLkAL0okTI3WwpAs0gQFOEFGAWXIwAuZ1efSJQBGrQtFCg5ngxo75L1Lk3I4DjDg/Es3iMVecG3B2Iv4S/Acfln//8JwAAAAAAAHSXFgEAAAAAAKBaWgQAAAAAAIBqaREAAAAAAACqpUUAAAAAAAColhYBAAAAAACgWloEAAAAAACAamkRAAAAAAAAqqVFAAAAAAAAqJYWAQAAAAAAoFpaBAAAAAAAgGppEQAAAAAAAKqlRQAAAAAAAKiWFgEAAAAAAKBaWgQAAAAAAIBqaREAAAAAAACqpUUAAAAAAAColhYBAAAAAACgWloEAAAAAACAamkRAAAAAAAAqqVFAAAAAAAAqJYWAQAAAAAAoFpaBAAAAAAAgGppEQAAAAAAAKqlRQAAAAAAAKiWFgEAAAAAAKBaWgQAAAAAAIBqaREAAAAAAACqpUUAAAAAAAColhYBAAAAAACgWloEAAAAAACAamkRAAAAAAAAqqVFAAAAAAAAqJYWAQAAAAAAoFpaBAAAAAAAgGppEQAAAAAAAKqlRQAAAAAAAKiWFgEAAAAAAKBaWgQAAAAAAIBqaREAAAAAAACqpUUAAAAAAAColhYBAAAAAACgWloEAAAAAACAamkRAAAAAAAAqqVFAAAAAAAAqJYWAQAAAAAAoFpaBAAAAAAAgGppEQAAAAAAAKqlRQAAAAAAAKiWFgEAAAAAAKBaWgQAAAAAAIBqaREAAAAAAACqpUUAAAAAAAColhYBAAAAAACgWloEAAAAAACAamkRAAAAAAAAqqVFAAAAAAAAqJYWAQAAAAAAoFpaBAAAAAAAgGppEQAAAAAAAKqlRQAAAAAAAKiWFgEAAAAAAKBaWgQAAAAAAIBqaREAAAAAAACqpUUAAAAAAAColhYBAAAAAACgWloEAAAAAACAamkRAAAAAAAAqqVFAAAAAAAAqJYWAQAAAAAAoFpaBAAAAAAAgGppEQAAAAAAAKqlRQAAAAAAAKiWFgEAAAAAAKBaWgQAAAAAAIBqaREAAAAAAACqpUUAAAAAAAColhYBAAAAAACgWloEAAAAAACAamkRAAAAAAAAqqVFAAAAAAAAqJYWAQAAAAAAoFpaBAAAAAAAgGppEQAAAAAAAKqlRQAAAAAAAKiWFgEAAAAAAKBaWgQAAAAAAIBqaREAAAAAAACqpUUAAAAAAAColhYBAAAAAACgWloEAAAAAACAamkRAAAAAAAAqqVFAAAAAAAAqJYWAQAAAAAAoFpaBAAAAAAAgGppEQAAAAAAAKqlRQAAAAAAAKiWFgEAAAAAAKBaWgQAAAAAAIBqaREAAAAAAACqpUUAAAAAAAColhYBAAAAAACgWloEAAAAAACAamkRAAAAAAAAqqVFAAAAAAAAqJYWAQAAAAAAoFpaBAAAAAAAgGppEQAAAAAAAKqlRQAAAAAAAKiWFgEAAAAAAKBaWgQAAAAAAIBqaREAAAAAAACqpUUAAAAAAAColhYBAAAAAACgWloEAAAAAACAamkRAAAAAAAAqqVFAAAAAAAAqJYWAQAAAAAAoFpaBAAAAAAAgGppEQAAAAAAAKqlRQAAAAAAAKiWFgEAAAAAAKBaWgQAAAAAAIBqaREAAAAAAACqpUUAAAAAAAColhYBAAAAAACgWloEAAAAAACAamkRAAAAAAAAqqVFAAAAAAAAqJYWAQAAAAAAoFpaBAAAAAAAgGppEQAAAAAAAKqlRQAAAAAAAKiWFgEAAAAAAKBaWgQAAAAAAIBqaREAAAAAAACqpUUAAAAAAAColhYBAAAAAACgWloEAAAAAACAamkRAAAAAAAAqqVFAAAAAAAAqJYWAQAAAAAAoFpaBAAAAAAAgGppEQAAAAAAAKqlRQAAAAAAAKiWFgEAAAAAAKBaWgQAAAAAAIBqaREAAAAAAACqpUUAAAAAAAColhYBAAAAAACgWloEAAAAAACAamkRAAAAAAAAqqVFAAAAAAAAqJYWAQAAAAAAoFpaBAAAAAAAgGppEQAAAAAAAKqlRQAAAAAAAKiWFgEAAAAAAKBaWgQAAAAAAIBqaREAAAAAAACqpUUAAAAAAAColhYBAAAAAACgWloEAAAAAACAamkRAAAAAAAAqqVFAAAAAAAAqJYWAQAAAAAAoFpaBAAAAAAAgGppEQAAAAAAAKqlRQAAAAAAAKiWFgEAAAAAAKBaWgQAAAAAAIBqaREAAAAAAACqpUUAAAAAAAColhYBAAAAAACgWloEAAAAAACAamkRAAAAAAAAqqVFAAAAAAAAqJYWAQAAAAAAoFpaBAAAAAAAgGppEQAAAAAAAKqlRQAAAAAAAKiWFgEAAAAAAKBaWgQAAAAAAIBqaREAAAAAAACqpUUAAAAAAAColhYBAAAAAACgWloEAAAAAACAamkRAAAAAAAAqqVFAAAAAAAAqJYWAQAAAAAAoFpaBAAAAAAAgGppEQAAAAAAAKqlRQAAAAAAAKiWFgEAAAAAAKBaWgQAAAAAAIBqaREAAAAAAACqpUUAAAAAAAColhYBAAAAAACgWloEAAAAAACAamkRAAAAAAAAqqVFAAAAAAAAqJYWAQAAAAAAoFpaBAAAAAAAgGppEQAAAAAAAKqlRQAAAAAAAKiWFgEAAAAAAKBaWgQAAAAAAIBqaREAAAAAAACqpUUAAAAAAAColhYBAAAAAACgWloEAAAAAACAamkRAAAAAAAAqqVFAAAAAAAAqJYWAQAAAAAAoFpaBAAAAAAAgGppEQAAAAAAAKqlRQAAAAAAAKiWFgEAAAAAAKBaWgQAAAAAAIBqaREAAAAAAACqpUUAAAAAAAColhYBAAAAAACgWloEAAAAAACAamkRAAAAAAAAqqVFAAAAAAAAqJYWAQAAAAAAoFpaBAAAAAAAgGppEQAAAAAAAKqlRQAAAAAAAKiWFgEAAAAAAKBaWgQAAAAAAIBqaREAAAAAAACqpUUAAAAAAAColhYBAAAAAACgWloEAAAAAACAamkRAAAAAAAAqqVFAAAAAAAAqJYWAQAAAAAAoFpaBAAAAAAAgGppEQAAAAAAAKqlRQAAAAAAAKiWFgEAAAAAAKBaWgQAAAAAAIBqaREAAAAAAACqpUUAAAAAAAColhYBAAAAAACgWloEAAAAAACAamkRAAAAAAAAqqVFAAAAAAAAqJYWAQAAAAAAoFpaBAAAAAAAgGppEQAAAAAAAKqlRQAAAAAAAKiWFgEAAAAAAKBaWgQAAAAAAIBqaREAAAAAAACqpUUAAAAAAAColhYBAAAAAACgWloEAAAAAACAamkRAAAAAAAAqqVFAAAAAAAAqJYWAQAAAAAAoFpaBAAAAAAAgGppEQAAAAAAAKqlRQAAAAAAAKiWFgEAAAAAAKBaWgQAAAAAAIBqaREAAAAAAACqpUUAAAAAAAColhYBAAAAAACgWloEAAAAAACAamkRAAAAAAAAqqVFAAAAAAAAqJYWAQAAAAAAoFpaBAAAAAAAgGppEQAAAAAAAKqlRQAAAAAAAKiWFgEAAAAAAKBaWgQAAAAAAIBqaREAAAAAAACqpUUAAAAAAAColhYBAAAAAACgWloEAAAAAACAamkRAAAAAAAAqqVFAAAAAAAAqJYWAQAAAAAAoFpaBAAAAAAAgGppEQAAAAAAAKqlRQAAAAAAAKiWFgEAAAAAAKBaWgQAAAAAAIBqaREAAAAAYGbLsvwj/Bx+/e5b+K/E7e/Nl/CPrD0AxkiLAAAAAACzWJblp9BCqN/CH+GfBVo7rb0WVv2U9QtAvbQIAAAAAHCkFhaFFka1q56yYKmSq6gABkmLAAAAAABHWP4KpNqye39+D41GEEwBDJIWAQAAAABGWo4JpG4EUwCDpEUAAAAAgFFaMBSq7h21hWAKYJC0CAAAwDbLsnxuk1vtv9nfAYC/i+/MryELi0YSTAEMkhYBAAC4z7IsX8Jv4b1febfliL6Fn7PtAeBVxXdjW7rv95B9f44mmAIYJC0CAADwseWvQOrRJYdaSCWgAuDlxfdhu8L4yKX71gRTAIOkRYAZXb/8j/87/AIb/F/Za+pH/tf/vvxf4RfY4H9mrylqLf+9XNpRfsrGxd+147Q6biN1eY5au6FdIZVNat3rv4LXEAAvKb4D27/j2o81su/IowimAAZJiwAzun75H/8n/BM2+CV7Tf3I94Dhn7DBf2WvKWotf03sZ5MKo7jq5Q7tOK2O20jlE0zRZuWSQ60d4RQALyW++2YMpRrBFMAgaRFgRlfBFNsJphhNMDXAcnww5Xm+QxynI+8b0SOYqt4f4RQAL6N954WZlu97SzAFMEhaBJjRVTDFdoIpRhNYDLAcH0w1n7Kx8Zc4Pm05vey4jVI6wRTtfV21X+Vr1h8AnE185x35g5UfEUwBDJIWAWZ0FUyxnWCK0QRTAyxzBFMChQ/E8dl7H6a9yiaYWlurtquZDAPg1OK77tfVd99sfBcDDJIWAWZ0FUyxnWCK0QRTAyxzBFN/ZGPjX89PW6onO2YjVQZT31ZtV/uW9QsAZxDfc0dfRX0PwRTAIGkRYEZXwRTbCaYYTTA1wDJHMNV8ycb36uK4/LI6TkcomWCKdkaFbJaGBOCU4jtu5iX8bgRTAIOkRYAZXQVTbCeYYjTB1ADLPMGUK10ScVxmuLF5VTD1ZdVuLz9n/QPAM4vvtxl+rHIPwRTAIGkRYEZXwRTbCaYYTTA1wDJPMNW40uWNOB6zLNdTFUyNuifGr1n/APCs4rutXXX855vvupkJpgAGSYsAM7oKpthOMMVogqkBlrmCqU2fM2cVx6P3/Zju9WzB1G9Z/wDwrOK77efVd11v7Yrt30K7Sqv9UGat1b+GbGnBocFU9Pc5WBIaeElpEWBGV8EU2wmmGE0wNUCcyM8UTP2RjfEVxbH4tDo2R3q2YMpnBwCnEt9to5b2bT+Keeh7Px7f/s3SvuNvY+weTLU+QgvGbn367gdeUloEmNFVMMV2gilGc4I5QDuR/35CP4uhv7KdVRyHUSHOPZ4tmPqa9Q8Azyi+11oIk33fVWrLBO7+vo822pVd5UszR5ttKcPWdruKK1vS0HkD8JLSIsCMroIpthNMMZoTzAHaifzqxP5olmELcRxG/TL6Hs8WTLnHFACnEd9rLYzJvu+qtOX4fsr6PlKMqV2J1ZYMvGdpY+cNwEtKiwAzugqm2E4wxWhOMAdoJ/KrE/sZTDc5MlLs/5fV8ThaVTA14hffjftMAHAa8b2WXSFUpbU9zb+7YiztflHv3bvqI84bgJeUFgFmdBVMsZ1gitGcYA7QTuRXJ/Yz+Dkb66uI/T/t8orRVs/JtWaqCTYA2CO+01pQk33fVSn7jt8qxtB+kNOuCttztbjzBuAlpUWAGV0FU2wnmGI0J5gDtBP51Yn9DH7PxvoKYt/bsjXZMTlSZTDVezk/S0ECcBrxvdaWssu+7yoc8p0Z/d7uF3XPEn33ct4AvKS0CDCjq2CK7QRTjOYEc4B2Ir86sZ/F52y8Zxf73ZavyY7HkSqDqTYZ1euqqdZu+Q3XAeAo8b3W8/5Sh3xnJuOo4LwBeElpEWBGV8EU2wmmGM0J5gDtRH51Yj+Lr9l4zy72u/dSd1uULvMT7fW6h9ZLLwEJwPnEd9uj91q612H/zk7GUsF5A/CS0iLAjK6CKbYTTDGaE8wB2on86sR+Fn9m4z2z2Oe2rE12LI5Wfv+JaLP6yjBL+AFwOsn3XZVN53YVkrFUcN4AvKS0CDCjq2CK7QRTjOYEc4B2Ir86sZ/JS10BE/s763PR5cbo0W7V/aZe8uo6AM4tvt/a8rfZ916Fw5ZMTsZSwXkD8JLSIsCMroIpthNMMZoTzAHaifzqxH4mL/MaiH39vNr3mXQJpppouy3rt3X5wrbdl6xdAHh28R33jzffeaXWfY2UjaeA8wbgJaVFgBldBVNsJ5hiNCeYA7QT+dWJ/WwOuTH3aLGfPW9uvle3YKqJ9tsvwtvVU3987+9H2uPa43/K2gOAM4jvuV7B1KH/xk7GU8F5A/CS0iLAjK6CKbYTTDGaE8wB2on86sR+Nr9m4z6T2McWzGy9amiErsHUW62v0EKnFtS11+ZN+/+tPmwsAHCk9p0Xsu/lvQRTACeRFgFmdBVMsZ1gitGcYA7QTuRXJ/az+SMb95nEPv682ufZCIMAYLD2/bv6Pq5y6I9+kvFUcN4AvKS0CDCjq2CK7QRTjOYEc4B2Ir86sZ/Rqe8jFPt37xJ2RxFMAcBg7ft39X1cRTAFcBJpEWBGV8EU2wmmGM0J5gDtRH51Yj+jb9nYzyD2rdekUyXBFAAM1r5/V9/HVQRTACeRFgFmdBVMsZ1gitGcYA7QTuRXJ/az+ikb/7OL/Wr3Tsr2dyaCKQAYrH3/rr6PqwimAE4iLQLM6CqYYjvBFKM5wRygncivTuxntekzaGaxTz+t9nFWgikAGKx9/66+j6sIpgBOIi0CzOgqmGI7wRSjOcEcoJ3Ir07s9/o9/LmqVfgjG/8zi336ZbWPe7T7VLVjn/1tL8EUAAzWvn9X38dVBFMAJ5EWAWZ0FUyxnWCK0ZxgDtBO5Fcn9nu19notT/c524dnFfvTwqRsP7f4NfS6+k0wBQCDte/f1fdxFcEUwEmkRYAZXQVTbCeYYjQnmAO0E/nVif1erb3Pq1qV37J9eEaxL19W+7bXpyCYAoCTaN+/q+/jKoIpgJNIiwAzugqm2E4wxWhOMAdoJ/KrE/u9/vW8xX97LCvXlgj8ab0Pzyj249ub/drr2/c2BVMAcBLt+3f1fVxFMAVwEmkRYEZXwRTbCaYYzQnmAO1EfnViv9ctmPp5Va/y83ofnk3sQ7u6Kdu3rf51TOK/gikAOIn2/bv6Pq4imAI4ibQIMKOrYIrtBFOM5gRzgHYivzqx3+sWTP0U2hVO2WP2+H29D88m9qHdDyrbty3+fNOuYAoATqJ9/66+j6sIpgBOIi0CzOgqmGI7wRSjOcEcoJ3Ir07s9/r38xb/+7fV36p8ersPzybG/8dqf/b4+qZdwdTJxLFvV9e1iclfQgs0v4b2PK+1ELgtn7mut22a1sZTv2+4T3uevz/f7arV2/PfrF8bb719XLv/Xdv+FMum9hLHZ/3ebMuzro9r9r5sj7sd67b956z9V9KOwfdjcTuWzXufdc3bY3g7jqf8nvq+b9n38l6CKYCTSIsAM7oKpthOMMVoTjAHaCfyqxP7vd4GU9VL1t38O4x5NjH26iUO/x02xP+ufi5vBFMDxHFu75cWCtwmZLPnYq82Ud7a/tdkbjaOV9D2/fsxaMfiR/fDa3+/TYRPFSLEeG770cbX475+TTtG7TXZPrteNtyMfW/hSQtO2rHucjVwaD/maH2cNWRpV1K3z7jbe6/yRxo3bz/jWl9PHbDG+AVT93PeALyktAgwo6tgiu0EU4zmBHOAdiK/OrHf62/PW/v/q79X+Pfydc8mxl55PEYc66Z0krS1F9qkYbWnmzSPMbfJ7jbp3ytUuEebaG+hQ/kEbrTZwrbsudrr4ec6tmmT1G3if2+ocNiEbvTdjmcLLnq91+/RwoT2mv2SjfFMYh9v788eAco92vPcnu+nDQRj7DN8xrW+2+fGIcFy9LvnO6/XlefttZX1N0o2pr3a+zTra6+XDeSB55AWAWZ0FUyxnWCK0QRTA8QJd/UE5zosqb5C6ObpJkVjzNVXkP28av9Zgqk20ZP1s9dTXGUQ42yvgyMnuz/yr5AqG/cW0VavX/vf/VzHY9tnUOWxHhpMRX+3MOrIif33tJCvvZZPtRxd7E97zcx2vNt42utg+iuAYoxHB3ofaWMaGvZFX72+8xjjlFcwAueRFgFmdBVMsZ1gitEEUwPECXfXYOp7Hz2WPfq27md2MeY2UZftyxb/cdVY1ARTSX+zaOMLLfjJxj6b9p5tz9OuSfDY/rBgKh7TJsd7vCeGBFPRzzO9Xpp2rJ96AjfGXx1i9nDoEmwfibHNGOh9pF2N1D2gij4EU89NMAVMLS0CzOgqmGI7wRSjCaYGiBPuEcFUZSDz1lMtrxLjrQzo/uM+W1ETTCX9Ha2NK/R6bnrbtWxmbH9IMBV/b1dEZNtV6BoMRPvP/Hppni6gauMNzxKoTBdMxZieIdD7SNeAKtoWTD03wRQwtbQIMKOrYIrtBFOMJpgaIE64RwRT1UvY3Uz7y/G1GGubuMv2Yav/mESLmmAq6e8oMZ72un/mgOFf1vv1iNh+eDAVf+t1T5abLp870e4pXi9vtH2Z/scDMcZeP5zoZZrvvRhLu2/bMwdSa+210ONee4Kp5yaYAqaWFgFmdBVMsZ1gitEEUwPECXf3YKpTP80fWV8zirFW/hp/5DFuBFMPirGcZiJyvW+PiO2HBlNR7x1KNaXBQLT3U2vzTftn0q4S3fTvx95iXC0IfKZl524OD6ZiDO3YPdMyk49oQduzfOcxhmAKmFpaBJjRVTDFdoIpRhNMDRAn3KOCqeorhm6mnzCIMbZ73WRj3+rnd/oRTCX9jRRjaM/1M052v2u9j4+I7YcFU1EbEUo1ZcFAtHW618s72mdT+ZUoW8VY2nHvce/DEQ4NpqL/9l3+rMfuEf+xXO5W0ZZg6rkJpoCppUWAGV0FU2wnmGI0wdQAccI9JJhq4m89JrN+y/qaSRvjasx7vHvPn/ibYCrpb5To/5QTtuv9fERsPySYiv8/cjm2kmAg2ul5H6wZtffG5+xYjBRj6PUjiVEOCaai33Zl36jwdxYtNN4dqEYbgqnnJpgCppYWAWZ0FUyxnWCK0QRTA8QJ98hgqtfkzDS/xF9rYwuVYcW7QVz8TTCV9DdC9P1s96m523pfHxHbdw+m4n+3+9xkj+lldzAQbbzaBP9b6RWfI7S+V2N5RsODqeizfY+9wpV9md2BamwvmHpugilgamkRYEZXwRTbCaYYTTA1QJxwjwym2n0psm32mvIeJk2MrXoi9N0JsvibYCrpr7fo99Qhw3p/HxHbdw2m4r/Vwe89NgcDse0rT/C/NTycij57vRZHGxpMRX/PvOxhlV3hVGwrmHpugilgamkRYEZXwRTbCaYYTTA1QJxwDwummvh7jxum/571NYMYW7uRejbmLT7cz/i7YCrpr6fo8/RXvqz3+RGxfe9g6ojjvykYiO2EUn83LJyKvtqPIs4SrgwLpqIvodR/2xxOxXaCqecmmAKmlhYBZnQVTLGdYIrRBFMDxAn36GCq17Jbh9+7ZC3GVD0p/+FEbvxdMJX010v09xLLsa33+xGxfbdgKrRJ8+xvvT0cDMQ2QqnckHAq+jnTsR8STEU/Qqn/tCmcim0EU89NMAVMLS0CzOgqmGI7wRSjCaYGiBPuocFUE4+pvIro5t17Lx2ljWk1xj3ahNiH99KKvwumkv56iL5eIpRq1vv+iNi+ZzDV4+rLezwUDMTjhVIf6/q+jfbPFgp0D6aiD6HU+374XbwWjxdMPTfBFDC1tAgwo6tgiu0EU4wmmBogTriPCKZ6TNL8mfV1lBhPm4zOxrnVD4O3eIxgKumvWvTzUpOM6/1/RGzfK5iqvnfbIx4Npl4mxNyoTfR/yo7dXq3dN/2cRddgKtoXpP7YQ8sHx+MFU89NMAVMLS0CzOgqmGI7wRSjCaYGiBPuI4KpXpOFw2+o/54Yyy+rse31w+WD4jGCqaS/StFHr6Uop7U+Bo+I7XsFUz2uurzX3cFAe+xqW3Jd7hMY7Z4xFOwdTPX6Hjmbr9nxy8RjfQ48N8EUMLW0CDCjq2CK7QRTjCaYGiBOuIcHU008rscyXNO8ZmIslRPnd03axuMEU0l/VaL9Fqi+3PJW6+PwiNi+VzB1pLuCgXjcGfe9p7sn+u8R7R1xtVS70qh9Dn8N7XPupn3ftXrF90K3YKq1veqLj33JjuNaPM5xfW6CKWBqaRFgRlfBFNsJphhNMDVAnHAfFUz1mrTtsiTUI2IM1VfV3HUlWDxOMJX0VyXan2l5qzaWNtl9m/huV+i191TT/vetvnsyfH0cHhHbv2QwFY9py6HNEGK2MbTXQHN7Tbx1+1u27RHK3sPRVguHsj4qtePbrsq6K6C4icff3qftPfzo66RLMBXtzvJebZ9X7TX59vPtpj2n7W+zfBa35+6H95uKx7SxZ9vzHARTwNTSIsCMroIpthNMMZpgaoA44a6elLz7eYvH9liOq/RX91vEGCqvBrtr4quJx/WaYH75YCraPnpisU3EtjFs2sfYrgUlLTBtk+gPTYSv23pEbP+qwVTlZ8AjbkFJuwfXQyF9e/z37baEJVX+yMa2RbTVex/a+/Guz+YfiXZu782sn7XyYCrabJ8PPb6P79H6bYFTOwYPHc94/OfQAr4jw9V77v8omHpugilgamkRYEZXwRTbCaYYTTA1QJxwHxlMVd+HqSmb2Nwi+q9ePuqHk1438VjBVNLfXtFum/zM+uutTay3CdvyqwCjzTYJfFd4st72EbH9jMHU7YqM9XJrrdb8KND4MBiIv1dfMXmPNu6ye+xFWy2oaCHVEWHF7uAl2uj5umuvjx/e82+LaPee494jmBpxddlaC+LKPrOjrfbd297HR4Sq3YKL1vaqryrlr6NHJOOp4LwBeElpEWBGV8EU2wmmGM0J5gDtRH51Yr/XI8FUm4TL2tjroWWVKkXf1aHL3ROg8djq5/Lm1YOp0ctGtYnVdoxKrsb4SPTRJnM/vFJjvc0jYvuZlgdrQfhdIV97XGgBQXZsfhRMjQxzWl/dJsWbaL8dh5GT/a2vXa/92L5n0NIllFqLftp7J/tMLw0Uor3RwXvbp25L7kbb7d8Vvb5j3tPt36vRtmDqfs4bgJeUFgFmdBVMsZ1gitGcYA7QTuRXJ/Z7PfS8xePvXb7oEd+yvkaIvisnpR+6+iseL5hK+tsj2myT8llfvbSrmIbfJ631GdL34vqxj4jtjw6mdgc3sf36KpZ3J3Tb374/ZoRhy5ZGX+0YjFyecNekeWzf67Nw+GR+9LkOqKqDqV7Haq0FjmVX9f1I9NUCt5E/Kuj1wwjB1P2cNwAvKS0CzOgqmGI7wRSjOcEcoJ3Ir07s93o0mOo16XLE5H51iPHQ5248XjCV9LdVtNcm40ddKTJ00vY9MYb2fvzbZO76MY/43t7b/RypfOI12mxXXaXvy6iPer20Pg65KjT67bH8aqbt4+arplZtVep+FeN7ou/blWtlr+toa9T7s32mDLnS7K3os70ne/z4JdPl36zRrmDqfs4bgJeUFgFmdBVMsZ1gitGcYA7QTuRXJ/Z7Pfy8xTY9lr7a9Jm1R/RZfSwfvRG8YCrpb6tob9TVL22yefik7UdiPC2A+FfIsv7bI2L7I4KpQ4Kb6HPE6+Xw10r0P+oqwk0T57FdCyOy9vY6/N8kMYa2b2Wfc22fvu9bTy2UOizQa6L/UeFU6XdQ09pc9VFFMAVwEmkRYEZXwRTbCaYYzQnmAO1EfnViv9eWYKrHr/AfWgZvr+ivLYWWjWOr37J+PhLbCKaS/raItkZd/XL4pO17YlztNf179rd7xfajg6lDgpvoc8Tr5fBQ6ibGMSKc+jPr+0diu1NO5FeL/Rnx3pzm8y3GMSKcevh7+0eiTcHU/Zw3AC8pLQLM6CqYYjvBFKM5wRygncivTuz32hJM9fqFe/mvl98TfVXfbP/hscc2gqmkvy2irRFLlk0bSlWJ/RsdTB0S3ES/I4KaQ5bve0+MZ8QVYg/vc2wjmLpD7E/voKYFqcOX1P1IjKd95mZjrVT6mR7tCabu57wBeElpEWBGV8EU2wmmGM0J5gDtRH51Yr/XpucttusxSVb+6+X3RF+VV0tsutorthNMJf1tEW31WF7yrWmufukp9nFkMHXYPbqi794T3lOGIjGuXp85N9+yfj8S2wimfiD2pdePQd4q/d6oEGMacWVj6TLC0Z5g6n7OG4CXlBYBZnQVTLGdYIrRnGAO0E7kVyf2e20Npj6v2qnQJqC6X5ESfVRfLbHp8za2E0wl/T0q2vmyareH6SZte2j7udrvXh4OMKpE3z0+u97atZxiTzG26iVMMw99hsfje73mTvNvktiX3leEfs36nUGMrffVjaXv12hPMHU/5w3AS0qLADO6CqbYTjDFaE4wB2gn8qsT+702P2+xbY+rDrpfRRF9VI97U5gW2wmmkv4eFe18W7Vb7TRXXvxI7OuIYGpIAP2e6Lt6Gc+1qUPMGF/vJf0e+gyPx/d6zW2659WMYl96XuF36PvxHjG+3lf6lS1hGG0Jpu7nvAF4SWkRYEZXwRTbCaYYzQnmAO1EfnViv9eeYKrHL5m7Xm0Q7VdfLbF5+cHYVjCV9PeIaKP3ElfTXv3SQ+zviGDq6AnWnss+DluOdKsYY+/l0R46BvH4nq+5qe7ztUXsQ++r3A5bUvNeMcben0tlxyDaEkzdz3kD8JLSIsCMroIpthNMMZoTzAHaifzqxH6vPcFUrwnObvfyibar7421OVyJbQVTSX+PiDZ6L/NUeixn1/Z3tf/Vjr5aqvcyfmVXXvQU4+x51dhDVyrF43u+5p4+WI596LmM36b7Ix4hxtrzqrGypUWjLcHU/Zw3AC8pLQLM6CqYYjvBFKM5wRygncivTuz32vW8xfbVQU/T5X4X0W51kLZrUi+2F0wl/T0i2ui5jN/LfabFPvcOpg69oij67znJ/zSvlxhr76tw7v5xQTy291WP01/F9pEYf8/PuKdZpjTG2vNHCGXLPkZbgqn7OW8AXlJaBJjRVTDFdoIpRnOCOUA7kV+d2O+1N5jqcQVCl3uDRLvVE1ubPmdvYnvBVNLfI5I2K73U1VJN2+fVMajW7WrIe0T/PSf5p18S7a0Yb88rUB76bEy2r/a04VSMveeyi09xhV8TY+0dYJZ8NkU7gqn7OW8AXlJaBJjRVTDFdoIpRnOCOUA7kV+d2O+1+3mLNnpMcJZP8kab1feW2bUkWWwvmEr6u1fbftVepZf8PIv97nlMD182LMbQa5K/S5jeU4y559Vjj95nqtdn4Vutj6cJYpoYb8+lJ8uWrxuljXm1D5VK/s0R7Qim7ue8AXhJaRFgRlfBFNsJphjNCeYA7UR+dWK/V0Uw1WOJndJJs2iverJo9/iiDcFU0t+9Yvte42qe6uqXKrHfPYOpo5fx6znJ/3RX5MSYey7n99C9neLxPd/La62vw+5z9ogYZ8/w8Ok+49qYV/tQqST4iXYEU/dz3gC8pLQIMKOrYIrtBFOM5gRzgHYivzqx36simKq+d9NN2a/bo63qe2F9yfp5RLQhmEr6u1ds3+v4tdfyU0xcV4v97hlMHToR3vpfjafSUwaZMe7qq0j/bd3XR+LxX9bbd9be49MHVDG+HvdwvHmqq8eaNubVPlQq+TdstCOYup/zBuAlpUWAGV0FU2wnmGI0J5gDtBP51Yn9XlWTMV9X7Vao+gVz9b0pSpYki3YEU0l/90raq/J0S1xViX3vGUwdOhEe/fe8KufpJvmbGHfPpdEeOibx+J73UnrP1AFVjKvXd8Thy2puFWPv9Tqp+l4XTN3PeQPwktIiwIyugim2E0wxmhPMAdqJ/OrEfq+qYKrHL5mrJoqql0OqCswEU0l/94htey7L9pLL+DWx792CqXVfo8UYer3fnu7+Ujcx9p5h3UPv73h8z6uD7tH6/5yN7Sir8VV6uqUnb2Lsvd7H0Xze5yOiHcHU/Zw3AC8pLQLM6CqYYjvBFKM5wRygncivTuz3KnveWlurtitULJlXvVxVydUR0Y5gKunvHrFtz6W/nvLqlwqx770mVQ//fogx9Fq27mm/+2LsPa+Qeyjgjcf3XKbtEe1z+fBwOsbQ83gcGnLs0ca+2pdKuz/7ow3B1P2cNwAvKS0CzOgqmGI7wRSjOcEcoJ3Ir07s96oMpnrcw2XXL7tj++oAo2yZt2hLMJX0d4/YtteYnvbqlwqx/70mVQ9fHjEZU5VnnuTveeXhw8cltun1mbhFWzKuLVF7SFAd/fYMDUu/I0aKsVdfAf3W7uPS2li1WUUwBXASaRFgRlfBFNsJphjNCeYA7UR+dWK/V+nzFu31uP/D5vt/xLbV91DZfQXXTbQlmEr6u0ds22vZr5f+HIv9P+ukavV95t7a9O+tWST7U2VLMDXLVVNr7XtkaJgT/fX4ocfNVEsWPiLGPnVg19pYtVlFMAVwEmkRYEZXwRTbCaYYzQnmAO1EfnViv1d1MNV+YZ71s8emz7PYrnqSs/SG8dGeYCrp7x6xba9j9zXr71XE/p91UnXqyewjJftTZdNVcrFdz6Xa9mqfO0Oe7+in23FY9/VMYvw938u7Q+ZoQzB1P+cNwEtKiwAzugqm2E4wxWhOMAdoJ/KrE/u9qoOpHr943xQIxXbVE3ulE0PRnmAq6e8ese3vq7aqHDr5d7TY/16Tqofesyf6F0y9I8bf63No83dLbNvr/V2le0AV7Qum3pHtU5Hdn//RhmDqfs4bgJeUFgFmdBVMsZ1gitGcYA7QTuRXJ/Z7lT9vrc1VHxUeXnootvlj1cZepfcaifYEU0l/90jaqlK2VOMziv3vNal6aHgT/Vffa+6tzUuNziDGP2Mw1X7g0GNZ2GptSdEuz3+02+Pq4+bp/62W7FMVwdQ7kvFUcN4AvKS0CDCjq2CK7QRTjOYEc4B2Ir86sd+rRzDVYxL4t6yv98Tjq+/PsWlZqo9Em4KppL97JG1VOTRAOVrb/9XxqHJ0MOXqk3fEPkwXTDWx/efwDOFUG+PuJeDWos0pn5cZJPtURTD1jmQ8FZw3AC8pLQLM6CqYYjvBFKM5wRygncivTuz36vK8RbvVVyu1yb+7f5kej60+TuVX0kSbgqmkv3skbVURTOXHZS/B1KRiH6YNQKKNZwmnmnYcy66e+t5e1s9egqn3CabekYyngvMG4CWlRYAZXQVTbCeYYjQnmAO0E/nVif1evYKpHhPBd92nJh5XfZ+rP7N+9op2BVNJfz8S27XJ6qy9CoKp/LjsJZiaVOzD1AFItNPe77Pfc+qmhWgPLzubiXYEU+9I9qmKYOodyXgqOG8AXlJaBJjRVTDFdoIpRnOCOUA7kV+d2O/VK5iqDoeau8Yaj6u+N8fXrJ+9ol3BVNLfj7TtVu1UEkzlx2UvwdSkYh+mD0CirZ/Ctzdtz+6uH1F8JNoQTL0j2acqgql3JOOp4LwBeElpEWBGV8EU2wmmGM0J5gDtRH51Yr9Xt+ct2u4xkfgp6+uteEz10k8/7HOLaFcwlfT3I227VTuVBFP5cdlLMDWp2IenCUCizV/Csyzttyuciu0FU+9I9qmKYOodyXgqOG8AXlJaBJjRVTDFdoIpRnOCOUA7kV+d2O/VM5j6suqrwodXL8Xff149fq+ex0cwlfT3I227VTuVBFP5cdlLMDWp2IenCkCi3XY1bq8xV9scTsW2gql3JPtURTD1jmQ8FZw3AC8pLQLM6CqYYjvBFKM5wRygncivTuz36vq8Rft/rPrb68P7PcXfq+9FsntJpvdE24KppL8fadut2qkkmMqPy16CqUnFPjxlABLttx8+VH+/9LD1c04w9Y5kn6oIpt6RjKeC8wbgJaVFgBldBVNsJ5hiNCeYA7QT+dWJ/V69Jw97TAh/eaevdpP87PFbfRiC7RXtC6aS/n6kbbdqp1L62noVsf+Cqcf9lPX5LGL8vT6Hutybby36mX15vza2h18jsU2v5+X3rL9nkuxTld2f/9GGYOp+zhuAl5QWAWZ0FUyxnWCK0ZxgDtBO5Fcn9nv1DqbasktZv3t8e6ev31aP26vrxGq0L5hK+vuR2O6nVTuVDp38O1rs/1mDqR7Lit4cum97JftTZdh7KfpqnwktoJr1Cqr0O+sjsU3199m/rft6JjH+nj9M2P1ebm2s2qwimAI4ibQIMKOrYIrtBFOM5gRzgHYivzqx36v78xZ99Jhg+7Tqo01MVv9q/m99VIv2BVNJf/dI2qoy5CqPWcX+nzWYmnoy+0jJ/lQ5ZCI9+m33Gaxe0rXCQ6+TeHy3q/zWfT2TGL9g6gDJeCo4bwBeUloEmNFVMMV2gilGc4I5QDuRX53Y7zUimOoxUfO3SZr4/20yMnvcViOOi2Aq6e8eSVtVXvpzLPZfMPW4QyeM94ixVy9/+tYMz3m3q442eGgJvXh8z+UnD31u9oixtyvjsn3abd3XFtGOYOp+zhuAl5QWAWZ0FUyxnWCK0ZxgDtBO5Fcn9nsNed6in+ollv7o3P7Pb9vvIfoQTCX93SO27bVkV9f7is0u9v+swVTP5R+f9iq7GHvPwG6K8CPG0Z779hk2wzJ/dx+TeGz1jy3eetp76cXYp76SLNoRTN3PeQPwktIiwIyugim2E0wxmhPMAdqJ/OrEfq9RwVSPXzn/a5Kv/XdV32tIOBH9CKaS/u4R2/Y6dk3XJRxnFvt+ymCqScZU5Wm/+2LsU0/yV4txtbDnyIDq7ntNxWN7hobPfJVfr8/+kvdxtCOYup/zBuAlpUWAGV0FU2wnmGI0J5gDtBP51Yn9XqOCqR5XLPz2ve3q5ZqGXAER/Qimkv7uEdv2XKKr+9Vys4p9P3Mw1e2+Q+u+nkWM/dt6X4r87YrW2cT42uu8Z7j9kZ+yMa3F4z6ttqv0zGFq9b0kb/7174m9oh3B1P2cNwAvKS0CzOgqmGI7wRSjOcEcoJ3Ir07s9xr2vEVfPcKEHpN3n7PxV4t+BFNJf/eIbbtd6RHuvqrhbGLfzxxM9QwihnxmVItx97p66CneQzHOI66gujv4Trat8pRLlsa4e4Z1m86b1qIdwdT9nDcALyktAszoKphiO8EUoznBHKCdyK9O7PcaGUz1mLCpnlR86Ab1e0Rfgqmkv3u0bVdtVWq/yL/rqoazif0+czDVM8wsmdQeKcbcc5L/qZaKa+Ndjb+nu6/MiccKU9+IMfe871bJZ1RrZ9VuFcEUwEmkRYAZXQVTbCeYYjQnmAO0E/nVif1eQ5+36G+GG9B/ZNgybtGXYCrp7x6xbY+lId96yeX8Yr/PHEx9WY2p0rBAu0qMucd9/24Of74fFWP+HLot9/jG3a+VeOzX1baVhixZWynG3GvpyWg+7/NR0ZZg6n7OG4CXlBYBZnQVTLGdYIrRnGAO0E7kVyf2e40Opnr+4nmvoVfKRF+CqaS/e8X2PUPOl/w8i/0+czDV8wqh5lPW76xivNNP8o8WY2+Bd/dwat3ve+KxPb8vp74PWCbG3Ov+UmWf99GWYOp+zhuAl5QWAWZ0FUyxnWCK0ZxgDtBO5Fcn9nuNDqbaxF+vyaW9Sm5+fq/oTzCV9Hev2L7HPcveOjxMGa3t8+oYVJniWMY4eoaZT7N8XYy1Z0j31P8WiPGPCKfuWkYvHtc7TH2az7gYa8+Qruy9G20Jpu7nvAF4SWkRYEZXwRTbCaYYzQnmAO1EfnViv9fw5y367B0obDX0nhvRn2Aq6e9esX3vq+9e7jMt9vnswVTPz56nuQIlxtrznkpPd7+ttdiHFgj1/AHF3e+HeGzPMHXojzH2iLH2+r5syr77oy3B1P2cNwAvKS0CzOgqmGI7wRSjOcEcoJ3Ir07s9zoimGr38sjGcqTh94iJPgVTSX/3iu1732eq+ZL1fVaxv2cPpnqHmdPfmyzG2Puq1ada0vA9sR89w7tHgqneP+SY/vmKMfb6XGpKA+VoTzB1P+cNwEtKiwAzugqm2E4wxWhOMAdoJ/KrE/u9Dnneot8RN5l/xPAJ5ehTMJX094hoo9t9cr5rVysMu+/Y0WJfzx5M9Q4zh96nbosYX8/AZXjA30vsS8/XyiPB1JfVttW+Zf3OJMbY82qpr1mfW0V7gqn7/Zn1BXB2aRFgRlfBFNsJphhNMDVAnMifJZjqfeXCIw6ZTI4+BVNJf4+INka8jqafuK0S+3rqYKqJsfQOM0snuivF2HpfLfX0y/i9FfvT6wcUD70f4vE9n7Nm2itDY2w9r5ZqSpfwjfYEUw9Y9wPwCtIiwIyugim2E0wxmmBqgDiRP0sw1XuC9BGH3Gcj+hVMJf09ItoY9To61YT7e2I/XyGYGhFmTrO/b8W4eodyp1jG7yb2p9cyeo8GU72X8zvkxxk/0sYUet5jq/y+cNGmYOoxU35WAvSUFgFmdBVMsZ1gitEEUwPESfwpgqkm+u492Xav0l9M3yv6FUwl/T0q2hn1OnqG+wftGmNs/wrB1Igwc7qJ/hhP70BuU8Af27V7Dk45OR3jmuKzrz1+tX0P0/0bLsbU+7O9/DM92hRMPeYlfvQB8FZaBJjRVTDFdoIpRhNMDRAn8WcKptqEZDamkQ67J0r0LZhK+ntUtPNp1W5PU4ZTMa52DP71elr/7RGx/emDqSbG83U1vh7aMnBThFMxjvZZ2zuM2/Qct+2+b9+ek9nCvF7ByMM/hohtel45dHPI1cOZGEvvILVLeBxtnjWY6rWs5WnuSwdwr7QIMKOrYIrtBFOMJpgaIE7iTxNMNa3/1XhGO+zXutG3YCrpb4toa+TraKpfeLfxhH+HDuu/PyK2f5VgalSYeXg4Ff2PCKU2f4/Etm9fcy18mSb8jbF0+VxZ93OP2G7UfRkPD6diDCP2tUvQE+2eNZjq+R17qiVAAX4kLQLM6CqYYjvBFKMJpgaIE/jqyYGjg6lRk23vOWzSOPoWTCX9bdHaWrXdW7tXz9GBQ9vn//gV+/pxj4jtXyKYamJMo5aAbM/RIROv0W97PnuHUs3m57dtu2qraZ+Nh75mov+25ON6XBU239eobbtqq5f23jjk8y36bUF7NqZKXa6WaqLdXp+hZw6mprlSD2CEtAgwo6tgiu0EU4wmmBogTuBPFUw1MYYRE6eZQydDon/BVNLfVtFeC4uyfnppk8RfsrH0FH22ic93Xzvrxz8itn+lYGrkEpDtM27oayX66/W+Xdv1HRLbf/SaOyygin57Hb9vWX/3iG1H/pCjBarD7r8YfbUgcNRneLeQJ9o+azDV+/Nkuu8IgF7SIsCMroIpthNMMZpgaoA4eT9jMDXifi+ZQydCon/BVNLfVtFeCxqOCDmHTJ5HH1++95WN4d/W2z0itn+ZYKqJcY26auqmPX9dJ/uj/fYc9rofTGbX1WCx/T2vuXbchi3xF331XP5w11Kgsf2oq6Zuul89Fe23wG3UZ/fmK9buEe2fNZjqfSVbe/53fzZGG+34WxoQmFpaBJjRVTDFdoIpRhNMDRAn3NVhxgzB1MgrF266Tk7dI8ZQ/VzevGQw1USbo64SybQwoE2wlk3iRlvtvdGC27sno9dtPCK2f7Vgql2lcVSYWXoFVWvve7tZf73sniyPNh55zbXnqr0fuoV7re3v/WT9VxgR5FVrx6MFVGXHPdpq7732eTk6aOv6WdTaX/VX5ehgasTrrr3ONp2/xnbtfXv7ocGU3zcAN2kRYEZXwRTbCaYYTTA1QJxwny6Yato4VuPqbdev1ivEGARTSX97RbsjrxZ5T3tu23F7aB/j8W2ytgUMbfJ9036s23xEbP9SwVQTYxtxT5v33Cb823P+UGARj3/7Whk9ud+0PneHsNHG1tdc678spIp2Wgjc+wq637O+HxXtjF629K3bcW/P20PPfzy+HeMWRrXj3DP8e0/35Xujj1MGU00ypl7aa6x9Ln/4mdj+/v1x6+9KwRQwtbQIMKOrYIrtBFOMJpgaIE64zxpMjbx3RtN1aaJ7xBgEU0l/e0W7va942KKNpz3ft8DqrTZJ2+ol4cL6eDwitn+5YKqJ8fV6L25xe520yf/1a+X2txle31WBUMVrrh2PFta0Y9Ta+2HIF49pnxMt2GvbjAqzS5YjjHaOutIv89FnW3sN3/6WbTtSSZD6I9HHmYOpI3700Z639vp5+3nY3usfjUUwBUwtLQLM6CqYYjvBFKMJpgaIE+7qCZ5pnrcYy6iJtu6/mr5HjKPXZN1LB1NNtD066JzG+lg8IrZ/1WBqpon+Z1B2xWm01es1d3MLRpqS8Hej9vqqXOaz93E7m27LP74V/Zw5mGrhUDa22QimgKmlRYAZXQVTbCeYYjTB1ABxwn3mYGrUpMcUkxYxDsFU0l+VaL/3slxTWh+HR8T2LxlMNW2MqzGTKw32o71XOe7lwUJrc9UHuZIr1e4RfZ05mGpXGWZjm41gCphaWgSY0VUwxXaCKUYTTA0QJ9xnDqba/QKyMVb6I+v7CDEWwVTSX6Xo44ilhw61PgaPiO1fNphqYpxH3m/qGbT3U+lyaNHeKwRT3ZaRi3aPvN/UMxh6hXT0d9pgqolxHHnV4b0EU8DU0iLAjK6CKbYTTDGaYGqAOOE+bTDVxHh6T7KVLUG1V4xFMJX0Vyn6aEu0vVQ4tT4Gj4jtXzqYamKsL3ml3R3KQ6km2nyFYKrb6z/afrnPuAcMX7Y3+jx7MPUMV+kJpoCppUWAGV0FU2wnmGI0wdQAccJ99mCq3Yw+G2eV7jc/v1eMRTCV9Fct+nmpidv1/j8itn/5YKqJ8Qqn/q5LKNVEu2cPpr5m+10p+hBO/adD7iUZ/Z49mGqvtWx8MxFMAVNLiwAzugqm2E4wxWiCqQHihPvUwVQTY+q1VMwhE1XvifEIppL+eoi+Xmbidr3vj4jtBVPfxZiFU3/pFko10faZg6nfs33uIfoSTv23w77ro+9TB1NNjGX2z0bBFDC1tAgwo6tgiu0EU4wmmBogTrhfIZjqFYR8yfo7SoxHMJX010v09xITt+v9fkRsL5h6I8b96uFU11CqifbPGkx1P3Zrrb/v/WbjeRWH/gAl+n+FYKq9zv58M7bZCKaAqaVFgBldBVNsJ5hiNMHUAHHC/QrB1KfVGCv8kfV1pBiTYCrpr6fos02o9b6P2aHW+/yI2F4wtRJj/2W1L6+ihXLdg5Xo44zB1PBQ6qb1G141UD38HpIxhtMHU02MZ+bPRcEUMLW0CDCjq2CK7QRTjCaYGiBOuE8fTDUxrurwYKpJnSbGJJhK+hsh+u61T4db7+sjYnvBVKKNP8x8hUC1YRP80dfZgqnDQqm3YgyvFKi29+YUnzFtHG/GVWnGf8PM+iMPwRQwtbQIMKOrYIrtBFOMJpgaIE64XyWY+rIa516fsn6OFGMSTCX9jdL6D73uZ3aY9X4+IrYXTL0j9qFdidLrPTuL9n74nO1/L9HfmYKpNlF/eCh1E2P5HE73GbfS3pMzHfNXCqZmXTpSMAVMLS0CzOgqmGI7wRSjCaYGiBPulwimmhhb1YTat6z9o8W4BFNJfyPFGNrE2tc3Y3p66318RGwvmPqB2Jd2JcoZr55q7/PhE/zR51mCqcOXkcvEuE73Gfddew/+nO3zkWJMLxNMNTGutvTybJ+HgilgamkRYEZXwRTbCaYYTTA1QJxwv1IwVbUU0Zes/aPFuARTSX9HaGMJM/7y+1G73s+xvWDqDrE/Z7qPT/scOuyK0uj72YOpdvyGXmW2RRvj97Fm+/BsWtA2zVVSb8W4XiqYamJss105JZgCppYWAWZ0FUyxnWCK0QRTA8QJ9ysFU22yIxvzI/7I2p5BjE0wlfR3pBjTz+EZl75qr6Xdx7O18abNSqecKIz9alcLPGtAVfKa2SvG0AKTZ7wCrX1OTHfFzo/EmNt7/FkDqvZem25Z3rdifC8XTDUxvvbvtVnuOXXK7xvgPNIiwIyugim2E0wxmmBqgDjhfplgqonx7Z30nflXxoKppL8ZxNhaQPUMk7ft/VF2HFtbb9qudOqJwti/FlC1qzieIWBpr5nprvCJMbX33CwT2x95ykBqLfahvdefIVRt76n2HTR1IHUT43zJYOomxtnuD3r056BgCphaWgSY0VUwxXaCKUYTTA0QJ9yvFkztneSZdjIrxiaYSvqbSYyxXc0xW+DQlkxqy1yWL2UVbQqmdop9nTFgaeNp45py+bO32hi/j7WNeab3XWkIPIvYp3a82+fJTEuxtee9He8pl+H9SIz5pYOpJsbaXlPt3w1HvH/bv6ueIsQEXldaBJjRVTDFdoIpRhNMDRAn3G2ivE18VHmGe2Nk477H1PvWxrcab5XSyedor10NkvWz1/ST5G/FeG8h1egJ3HaFRpuk7R4stPZD9lzt9VTPdYW2z6E9Z+25G7085LDXTG8x/va+a8HJ6KDqdgzbFSAv8fqN/Wyf9Ucc66Z9rrbP16cLo96K8ff6DH26sCXGfPsM7B3UtzCqvW4FUsBTSIsAM7oKpthOMMVogingJSz/PfnYfhXeJt2qwqo2wdbaa+22CXETbSfRnsvvz2n1a6a18zKvmbZ/4e17r+LK0xZCtXa8796I49BCwRYstOPSjk9VwNraaqFfa7c9ly8XXL+a9hyH9t5q4eOe9+zbzztL9gFPKS0CzOgqmGI7wRSjCaaAl7b856/l26+42wTa2tvHTH/VIn2tXg+38Gqt1f/9uKydVxfH5e1VqLdA5a32fvz3MQwCkQ3acVsdx+xYN28f43OOv4nXxNvXUfa59/Yzz3sVOI20CDCjq2CK7QRTjCaYAgAAAEikRYAZXQVTbCeYYjTBFAAAAEAiLQLM6CqYYjvBFKMJpgAAAAASaRFgRlfBFNsJphhNMAUAAACQSIsAM7oKpthOMMVogikAAACARFoEmNFVMMV2gilGE0wBAAAAJNIiwIyugim2E0wxmmAKAAAAIJEWAWZ0FUyxnWCK0QRTAAAAAIm0CDCjq2CK7QRTjCaYAgAAAEikRYAZXQVTbCeYYjTBFAAAAEAiLQLM6CqYYjvBFKMJpgAAAAASaRFgRlfBFNsJphhNMAUAAACQSIsAM7oKpthOMMVogikAAACARFoEmNH1y//4f8J/wQb/M3tN/cj/+t+X/9kCBthgUxgKAAAAcHZpEQAAAAAAAKqlRQAAAAAAAKiWFgEAAAAAAKBaWgQAAAAAAIBqaREAAAAAAACqpUUAAAAAAAColhYBAAAAAACgWloEAAAAAACAamkRAAAAAAAAqqVFAAAAAAAAqJYWAQAAAAAAoFpaBAAAAAAAgGppEQAAAAAAAKqlRQAAAAAAAKiWFgFmdPl//8//Cf+EDX7JXlM/9P9dfgn/hA3+K31NAQAAALy4tAgwo4tgiu0EU4wmmAIAAABIpEWAGV0EU2wnmGI0wRQAAABAIi0CzOgimGI7wRSjCaYAAAAAEmkRYEYXwRTbCaYYTTAFAAAAkEiLADO6CKbYTjDFaIIpAAAAgERaBJjRRTDFdoIpRhNMAQAAACTSIsCMLoIpthNMMZpgCgAAACCRFgFmdBFMsZ1gitEEUwAAAACJtAgwo4tgiu0EU4wmmAIAAABIpEWAGV0EU2wnmGI0wRQAAABAIi0CzOgimGI7wRSjCaYAAAAAEmkRYEYXwRTbCaYYTTAFAAAAkEiLADO6CKbYTjDFaIIpAAAAgERaBJjRRTDFdoIpRhNMAQAAACTSIsCMLoIpthNMMZpgCgAAACCRFgFmdBFMsZ1gitEEU1yWZfk1/FdnX7K+AQAAYFZpEWBGF8EU2wmmGE0w9eKWZfkp/HOA37P+AQAAYFZpEWBGF8EU2wmmGE0w9eKWZfl5FSD19CkbAwAAAMwoLQLM6CKYYjvBFKMJpl7csiy/r8Kjnr5mYwAAAIAZpUWAGV0EU2wnmGI0wdQLW5bl0yo46u2PbBwAAAAwo7QIMKOLYIrtBFOMJph6YcuyfF0FRyN8ycYCAAAAs0mLADO6CKbYTjDFaIKpF7Ysyx+r0GiE37KxAAAAwGzSIsCMLoIpthNMMZpg6kUty/JlFRiN9FM2JgAAAJhJWgSY0UUwxXaCKUYTTL2oZVl+W4VFI/2cjQkAAABmkhYBZnQRTLGdYIrRBFMvaFmWn1ZB0Wi/Z+MCAACAmaRFgBldBFNsJ5hiNMHUC1qW5edVUHSET9nYAAAAYBZpEWBGF8EU2wmmGE0w9YKWZfl9FRId4Ws2NgAAAJhFWgSY0UUwxXaCKUYTTL2YZVk+rQKio/yRjQ8AAABmkRYBZnQRTLGdYIrRBFMvZlmWr6uA6EhfsjECAADADNIiwIwugim2E0wxmmDqxSzL8ucqHDrSb9kYAQAAYAZpEWBGF8EU2wmmGE0w9UKWZfmyCoZm8FM2VgAAADhaWgSY0UUwxXaCKUYTTL2QZVm+rUKhGfycjRUAAACOlhYBZnQRTLGdYIrRBFMvYlmWn1aB0Cx+z8YLAAAAR0uLADO6CKbYTjDFaIKpF7Esyy+rQGgmn7MxAwAAwJHSIsCMLoIpthNMMZpg6kUsy/L7KgyayddszAAAAHCktAgwo4tgiu0EU4wmmHoBy7J8XgVBs/kzGzcAAAAcKS0CzOgimGI7wRSjCaZewLIsX1dB0Iy+ZGMHAACAo6RFgBldBFNsJ5hiNMHUC1iW5c9VCDSjb9nYAQAA4ChpEWBGF8EU2wmmGE0wdXLLsnxZBUAz+ynbBwAAADhCWgSY0UUwxXaCKUYTTJ3csizfVuFPhV5h17bPQAAAAOggLQLM6CKYYjvBFKMJpk5sWZafVsFPhd+/t/37ql7hX20DAADADNIiwIwugim2E0wxmmDqxJZl+WUV/FT4uWPbzef1fgAAAMAR0iLAjC6CKbYTTDGaYOrElj5XNf3rPlDx30+repWv6/0AAACAI6RFgBldBFNsJ5hiNMHUSS3L8nkV+FT4tuqjR/D159s+AAAA4ChpEWBGF8EU2wmmGE0wdVLLsnxdBT4V/rWM35s+ei3n9+VtPwAAAHCEtAgwo4tgiu0EU4wmmDqpZVn+XIU9Ff61jN+bPn5a/b3K367MAgAAgCOkRYAZXQRTbCeYYjTB1Akty/JlFfRU+O2dvr6tHlflbyEYAAAAjJYWAWZ0EUyxnWCK0QRTJ7T0CYvS5fWi/vPqcVW2fR4CAABAkbQIMKOLYIrtBFOMJpg6mWVZPq0Cngp/Zn018bdey/n9nvUHAAAAo6RFgBldBFNsJ5hiNMHUySzL8ssq4KmQLuN3E3/vtZzf56w/gLX4vGgh+T++a1dy/vpd+9+3+tRLhMb42g8L2jhvY/8t/NcH2t9vj23b+cwEACiWFgFmdBFMsZ1gitEEUyezLMsfIQt59kiX8btpf189vsrXrD+A+HxoIU4L4lsw/mfIPkMy7TOybfNz1u5IMYZbCNVCpmysW/0eWmjVQrlPWd8AANwnLQLM6CKYYjvBFKMJpk5kWZbPIZuk3OOPrK+1eNwjE8P3encJwVnFmKsnmE9nfcwy8bhex/EfWX9Hi3F12d91P3tEez3G+PB3UGzTwpYWvGTtPWTd9gjRbxv/o2HaXu14tRBPSAUA8KC0CDCji2CK7QRTjCaYOpHlr1/IZ5OSe9x11VI8rkffzeFXNTwixiuY+oH1McvE4wRTBdb97BHtHRpMxWNboFN6Rei6j16ir3Z119cwMox6T3sen+pzFQDgSGkRYEYXwRTbCaYYTTB1IkufSc+77lkSj+u1nN+3rL9ZxXgFUz+wPmaZeJxgqsC6nz2ivUOCqXhMuxK05AqptXVf1aKPFkj1Cu33aiGfgAoA4AfSIsCMLoIpthNMMZpg6iTaBOObCccqdy3jdxOP73U1wNMsPxVjFUz9wPqYZeJxgqkC6372iPaGB1Px9/a51u0qo3V/VaLtn0K7QirtdzIt9JvyfQEAMIO0CDCji2CK7QRTjCaYOonlr3uWZJOOe/ya9fWeeHyvidhtn40HiLEKpn5gfcwy8TjBVIF1P3tEe0ODqfjbr6vHllv3WSHabVePzrBk36Pa5/dP2T4BALyytAgwo4tgiu0EU4wmmDqB5a/lorKJxr0eulIpHt+W3Mra2euhK7eOFGMVTP3A+phl4nGCqQLrfvaI9oYFU1Efsvzdut89or12lVSPHwiM1Jb3u2v5VgCAV5EWAWZ0EUyxnWCK0QRTJ7Asyy9vJhar/J719SOxXZvYzNrb6ykmS2OcgqkfWB+zTDxOMFVg3c8e0d6QYCpqPT7PUuu+t4q2Wij/jFdJZdp+uPcUAMB3aRFgRhfBFNsJphhNMHUCS58waNPnUWzXazm/37L+ZhPjFEz9wPqYZeJxgqkC6372iPa6B1Px/9syeNnjunjb91bRTo/7+83gaZZQBQDoKS0CzOgimGI7wRSjCaae3NJv+byHlvG7ie16jefPrL/ZxDgFUz+wPmaZeJxgqsC6nz2iva7BVPzvtiTp0KuObn1vFW30CuJn8RQ/CAAA6CktAszoIphiO8EUowmmnlybOFxNJFbY9bqI7Xst5zf98lIxRsHUx37NjttaPE4wVWDdzx7RXu9gavh759b3FrH9kPtgTcCVUwDAS0uLADO6CKbYTjDFaIKpJ7f0ucJgVwAU2/e6R8y3rL+ZxBgFU++7+/OmPXa1bRXB1EbRXrdgKv47dAm/m7f794jY9lVCqRv3nAIAXlZaBJjRRTDFdoIpRhNMPbE2WbiaPKzyU9bfvWL7tiRX1m6FTUsMjhLjE0zlWoB69+sqHiuYKrDuZ49or2cw1esqyw+93b97xXavFkrdfM6OBwDA2aVFgBldBFNsJ5hiNMHUE1uW5dtq4rBCyVVJ0c7vq3arTL2sVIxPMJV7KBCKxwumCqz72SPa6xJMhV4B+w+t9/FHYpteV4M+g4fCZQCAs0iLADO6CKbYTjDFaIKpJ7X0uyqpZMmmaKfXBO4fWX+ziPEJpv7T1+xYfSS2EUwVWPezR7TXK5jqFWL/0HofPxKPP2S5wclMv5wqAEC1tAgwo4tgiu0EU4wmmHpSS5/gp+wX8dFOz+X8pl1SKsYmmPq737Pj9COxnWCqwLqfPaK9HmPscY+8u6338T3x2M/hyLG2vtvxvzlyLF+yYwQAcFZpEWBGF8EU2wmmGE0w9aSWPvdk+S3ra6tor8dSg03pOCvF2LoEDE+qTZ5vuidYbNfrOAqmNor2TvfaXu9jJh73Uxh9VVf77Gw/PvgwhG9/D20pxHbfq1FhVevHkn4AwMtIiwAzugim2E4wxWiCqSe0/DUZmU0Y7lX6S/hor9e9Y/7M+ptBjE0w9d82LwsZ2wqmCqz72SPae9Vg6ut6u05a4PNr2Bz6xLbtM3fE8/Rr1j8AwBmlRYAZXQRTbCeYYjTB1BNa/vp1fDZZuEd52BNttisNsr4qlNwLq1qMq4WG/3gSPSewd13VFtsLpgqs+9kj2nu5YCoe094n6bbFdgVSa9FWC6h6XkG1+WpIAIBnkxYBZnQRTLGdYIrRBFNPZvkr7Okx4dhlebxot9dyfm7Cv0Mcvy+r41mpLTO5a5I9thdMFVj3s0e0N1Mw1T4D22dLC3TWgWvTlsFrf2uPeXfZ0/U+rsVjeiyZ+lZbIrDLPfOi3d5LEH7N+gUAOJu0CDCji2CK7QRTjCaYejJLv+Xxek2O9hpv4xf7G7TjFnpeTbH7tRRtCKYKrPvZI9qbIZhqY3h4ydHYpl3J2Jbk+1vQtH7cW/H3Fmy97btau/K1672aWvuhVzjVPkPcawoAOL20CDCji2CK7QRTjCaYejJLn8nhP7K+qkT7vUIQ9znZII5bz6sotn2PrUQ7gqkC6372iPaODKbaa7bkuYt2Wlj+r/fA+m838bdeV6bedLlCNRN99QynSt7vAAAzS4sAM7oIpthOMMVogqknsvx1pUs2ObhX1yWZov0e98RqugZqZxTHrF01kh3LCmXLK0ZbgqkC6372iPaOCqa6fD5Fu+/+myv+1uszqxkWSt1En72ukvQZDACcXloEmNFFMMV2gilGE0w9kaXf0lJdlvG7ifZ73s9oyqBhRu1YrY5dpdJlvaItwVSBdT97RHtHBFM/Z2PpKfrs9QOAZngodRN9P9UysAAAs0iLADO6CKbYTjDFaIKpJ7L0uRH/kF+8Rz+9lsU6bKL3mcRx6r00WWngE+0Jpgqs+9kj2hsdTA0PpZrot9dVhW05vUPvyRT993gOu15xCwBwtLQIMKOLYIrtBFOMJph6Eku/q122fe48KPrptTRW6ZU6ZxXHqGeoUH6vr2hTMFVg3c8e0d7IYOqoUKpngHv4lUUxhh7fI5bzAwBOLS0CzOgimGI7wRSjCaaexNIv2PmU9Vct+um5jNwhk9jPIo5PryUgm9+zPveKdgVTBdb97BHtjQqmzrjc3TRXFcVYelx5azk/AOC00iLAjC6CKbYTTDGaYOoJLP1+xd8lVHhP9NdjQrTxOn5HHJve95XqEmxGu4KpAut+9oj2RgRT7TPisCsgo++23F42rj2muqozxtJjqcIhV94CABwhLQLM6CKYYjvBFKOZ0H8CS79f8Q+dTIz+et27pRly5dcziWPSAs1eYWDzJeu3QrQtmCqw7mePaG9EMHXY1Y/R96fVWKqUL3W5R4zn82p8Fb5lfQEAnEFaBJjRRTDFdoIpRhNMPYGl34Tw0F/xR389JkRvppr8nUEck2+rY1Sp63Jr0b5gqsC6nz2ivd7B1KH3Kor+ewTnU94D7/u4svFu5T5TAMBppUWAGV0EU2wnmGI0wdTkln6/4j/kF+7Rb68reEyMvhHH45fV8anUljvrOtke7QumCqz72SPa6x1MHXqvuOi/xzJ+h90v6yMxrh7P5XQBHABAhbQIMKOLYIrtBFOMJpia3LIsv64m/6ocMgkc/fban2bK0GG0OA49r0xrPmf9Voo+BFMF1v3sEe31DKb+zPocJfrv9QOAWV9vPT6Hff4CAKeUFgFmdBFMsZ1gitEEU5Nb+l1hdMiv26PfXhPAzZRXJ4wUx6D3faWG3Jcs+hFMFVj3s0e01zOYOvS9G/33uI/ftFdxxth67O+QzwYAgNHSIsCMLoIpthNMMZpgamLLsvxjNfFX5dAb1Uf/PZbMaqa8n8tIsf+/vTke1Ya9bqIvwVSBdT97RHs9g6kvWZ+jRP893jfTBuUxth7fLe7zBwCcUloEmNFFMMV2gilGE0xNbOkXMhw9Cdzz/keH3qfmSG3fV8eiUrsKa1joF30Jpgqs+9kj2usWTK37Gi3G0OMqw0M/Zz8SY+sRTPn3BABwSmkRYEYXwRTbCaYYzUTSpJa/lmRrVwBlE4B7HHovlybG0HM5v5d8Tcd+t/tK9Xi93AwNdKI/wVSBdT97RHu9npND37PRf/uszca117RXb7axrcZawb8nAIBTSosAM7oIpthOMMVoJpImtfS7+mWK5aViHN2uvgifsj7PKva3TTL3Wh6xGb5EV/QpmCqw7mePaK/Xc/I162+U6L/H1UO/Z33NJBnzXof/6AEAoIe0CDCji2CK7QRTjCaYmtTSbxJ4iuWlYhw9l517qXudxP5+Xe1/pUM+I1q/q3FUEUxtFO31ek4OXX4z+u+xtGi7erEdr5ll495lfWwBAM4gLQLM6CKYYjvBFKMJpia09FvqbppftMdYei2f1fyR9XlGsa9fVvteqU2uH3L1WfTbZeI8CKY2ivZO+ZxE/7+uxsNG62MLAHAGaRFgRhfBFNsJphhNMDWhpd8VMIcumbUW4/m2Gl+lKQOISrGPLcDseV+pw66ui74FUwXW/ewR7fV6Tg69F1P032u/Xs762AIAnEFaBJjRRTDFdoIpRhNMTWhZlj/WE35FPmf9HSXG03M5vynupdVT7GPP+0odfd8fwVSBdT97RHvTj3GLGINgqs6hISMAQA9pEWBGF8EU2wmmGE0wNZml39Js0y1vF2Nqy/n1uuKntXvaSdLYt573lWqB11mvYhFMbRTtnTWYSsfFJqe/UhUAeD1pEWBGF8EU2wmmGE0wNZllWX5bTfSx3c/ZMX52sV//WO1npRboHX5lXYxBMFVg3c8e0V6PMR7+HZSMie0EUwDA6aRFgBldBFNsJ5hiNMHURJa/riDKJvvY5vfsOD+z2KeeV5k1U4R5MQ7BVIF1P3tEe4IpfkQwBQCcTloEmNFFMMV2gilGE0xNZOl7z6VX9Sk71s8q9qdXYNN8y/o8QoxFMFVg3c8e0d7pgqno348BagmmAIDTSYsAM7oIpthOMMVogqmJLH/d2yeb7GO7r9mxfkaxL7+u9q3SH2Gae3LFWARTBdb97BHtnTGY6rks5isSTAEAp5MWAWZ0EUyxnWCK0QRTk1iW5dNqgo8af2TH+9nEfvSeQD/8vlJvxXgEUwXW/ewR7Qmm+BHBFABwOmkRYEYXwRTbCaYYTTA1iWVZvq4m+KjzJTvmzyLG35Yba1c0ZftW4des3yPFmARTBdb97BHtCab4EcEUAHA6aRFgRhfBFNsJphhNMDWJpW/w8Op+y475s4jxf1vtT6UpPwPauFbjrCKY2ijaE0zxI4IpAOB00iLAjC6CKbYTTDGaYGoCy7J8WU3uUW+a+yc9Isb9y2o/Kv0ZpjwuMS7BVIF1P3tEe4IpfkQwBQCcTloEmNFFMMV2gilGE0xNYFmW31aTe9T7OTv2M4sxf17tQ7VplziMsQmmCqz72SPaO2Mw1fs99moEUwDA6aRFgBldBFNsJ5hiNMHUwZa/7h+UTfBR6/fs+M8qxtteF7+/GX+1r1m/s4jxCaYKrPvZI9o7XTDVJGNiO8EUAHA6aRFgRhfBFNsJphhNMHWwZVl+Xk3s0c+n7DmYUYy151V004d0MUbBVIF1P3tEe4IpfkQwBQCcTloEmNFFMMV2gilGE0wdbOl7VQx/N/VVQjcxzp5hZbuv1Oes35nEGAVTBdb97BHtCabuJ6ABADiJtAgwo4tgiu0EU4wmmDrQsiyfVpOZ9PVH9jzMJMbY7nnTwqNs/BWe4l5bMc5XC6a6BNTrfvaI9s4aTP2xGlOFae/fBgDAY9IiwIwugim2E0wxmmDqQMuyfF1NZtLf1BPGMb6eV9D9lvU5oxjrqwVT2Vh3W/ezR7R31mCqx379mvUFAMDzSYsAM7oIpthOMMVogqkDLX1+qc/Hpg1nYmw9g8r2Wvsp63dGMVbBVIF1P3tEe4Kp+z1NCAwAwMfSIsCMLoIpthNMMZpg6iDLsnxZTWQyznQBTYyp9+th+vtKvRXjFUwVWPezR7R31mDq19WYKvye9QUAwPNJiwAzugim2E4wxWiCqYMsy/JtNZHJOFPdZynG0+411vO+Utu+Ww4UY+4VTE13LGJM/1iNscy6rz2ivbMGU7+sxlTlaa5QBADgfWkRYEYXwRTbCaYYTTB1gDZhuZrAZKyprmZo41mNr9JTvsdj3D2uYmmmu/dPjOnn1RjLrPvaI9o7azDVKxic+n52AADcJy0CzOgimGI7wRSjCaYOsPT7hX7T7iXUJvWfXc+wpvmUPTejxTjavmbjq9CuwnrKqzZi3L2Oy7esvyPFmLrdW2zd1x7R3imDqSYZV4WvWV8AADyXtAgwo4tgiu0EU4wmmDrA0jd0ebpl2zKxH92uIvnu8EnjGEO3Jdy+m/J+SveIsfcKpqa7908b02qMZdZ97RHtnTmYaoF+Nr49/sj6AgDguaRFgBldBFNsJ5hiNMHUYMuyfF5NXlab4kqgCrEvPe+79GfW5yjRf1vOsef+PfXVGjH+bleSrfs6Uoyn3V8sHWeFdX97RHtnDqZ+W42rytOGwwAA/CUtAszoIphiO8EUowmmBls6LtsVprsaZI/Yn16TxTeH3QMm+u4xyX/z9K+D2Icvq32qNE1YEGPpuaxndJH3u0W0d+ZgqtcVmr9l/QEA8DzSIsCMLoIpthNMMZpgarCl71Uyp1jG7yb2p2c40Rxyv6Hot/d9pZ7+qrnYh57LHE5zNVmMpccScv+27m+PaO/MwVTPK9dOcxUrAMArSosAM7oIpthOMMVogqmBlv5By+kmQGOfuk7ch5+yfnuJ/nov5XjYVWCVYj96BgVT3PsnxtH7HmPRTd73FtHeaYOpJsbS67PmqZfVBAB4dWkRYEYXwRTbCaYYTTA10LIs31YTlpVOtYzfTexXz6UPm2FXmUVf7b5SPYO2Uy0bluxfpcOX84sx9FzO8V/Wfe4R7Z09mOr5WeOqKQCAJ5UWAWZ0EUyxnWCK0QRTgyx/hRLZhGWVn7N+n13sV+8rjIYFetFX12AyDL36q7fv+5Tta4VDQ7zov9c9jf5m3e8e0d7Zg6menzW+awEAnlRaBJjRRTDFdoIpRjNZNsiyLL+sJiqrnSqUeCv2rfdyfp+zfitFH72f/+77MFrs02+rfax2yDGLfltI3fNec/+27nuPaO/UwVQT4+n5WTPs6sxeYh9O+z0DAPCetAgwo4tgiu0EU4wmmBpk6Xv1x7esz7OI/esd6nS9B0y03/uqr6ef8M60/VrtZ7VDPv9av6txdLPue49o7xWCqd6vuae9sjXG3o7Nqb9rAAAyaRFgRhfBFNsJphhNMDXA0j+YOOUyfjexf59W+1vtz6zfCtF2uzpGKLlB7Fvv900zNNSL/npfBfY36/73iPZeIZjqveRq81Sf1zHe9j68Pff+zQAAvJy0CDCji2CK7QRTjGaSaYCl7031m9MvrxT72DPcab5k/e4V7fYMItpycKd+7r/vY7bvlbo892vRz9BQqlmPYY9o7/TBVBNjGvE8TX+VY4yx/SBgfSz8mwEAeDlpEWBGF8EU2wmmGM0k0wBL38n1l1haKfbz59V+Vys/jtFm7zH/I+v3TGIfv632uYf2/uwaTkX7w0OpZj2OPaK9Vwmmel+hedNe29MFyzGmLJC68W8GAODlpEWAGV0EU2wnmGI0k0ydLcvyZTWxV+3Uy/jdxH6OWGKrbJI42mrLX/UMJH/N+j2b2M/e4d5b5cc02myvg95X+71rPZ49or2XCKaaGNeoILF9RkzxXo5x/CP8aL/9mwEAeDlpEWBGF8EU2wmmGM0kU2dL/ys+Tr+M303sa+9jWba8VrTVM4xok9ltEvlZ3f2abY8N2THopT1vu69EizY+uupkmPW49oj2XimYas9fz2B57Y/wSxj6eR79tf1s/bb+s3Gt+TcDAPBy0iLAjC6CKbYTTDGaSaaOlv6T6i+xjN9N7G/vq2d+z/p9VLTT+55iz+6h4CceP2I5v7UWULUJ+0/ZmDLx2PZ+b1dIHjHe1HqMe0R7LxNMNTG2X1djHaUFmt2Wloy221V8bd+2hOf+zQAAvJy0CDCji2CK7QRTjGaSqaPlr4ntbHKvykss4/dW7HPvqxg+Z/3eK7bvvXTjGTwaTLWrrLJ2RmlXk7RQpk3mZ1oQddhyfR9ZH8s9or2XCqaaGN+9VxL1cnvdtc+Vhz+bYpv23mmBfmuj4vnzbwYA4OWkRYAZXQRTbCeYYjSTTB0tfSer/8z6PLvY797Lo33N+r1HbDt6+a9n9fBSebHN0QHBU1ofxz2ivVcMptrVRdm4j9aei/f0/N7xbwYA4OWkRYAZXQRTbCeYYjSTTJ0s/Sc0f8v6PbvY795XJG0O/GLbKa+amdCWYKr3Mo6ntD6Oe0R7LfRI+9lh+u+gGGO72igb+yvybwYA4OWkRYAZXQRTbCeYYjSTTJ0s/a/s6XYPktnFvve+eubhYxvbmLy+38PBVBPbCf4etD6Ge0R7LxlMNTHOae4bdjD/ZgAAXk5aBJjRRTDFdoIpRjPJ1MnSd0m3l1zG7yb2/+vqeFT7lvX7nnj80fdAejZbg6mzHucWevQIfeKw5cdyi2jvlYOpn4JgVDAFALygtAgwo4tgiu0EU4xmkqmDpf+yYy+5jN9N7P+I+758yvrOxGPdV+oxm4KpJrbtHUqO1q7+a6GHYGpyMVb3kBNMAQAvKC0CzOgimGI7wRSjmWTqYOm/7NPLLuN3E8eg93J+d38eJ9vysT3B1JmuXGkhx+fv+yWYegIx3haKv3I45d8MAMDLSYsAM7oIpthOMMVoJpmKLX/9qj6b0Kvy0sv43cRx+GV1XKr9kfWbSbblY5uDqSa2P8OVK/8Opb7vk2DqScSYXzmc8m8GAODlpEWAGV0EU2wnmGI0k0zFlv6ByUsv43cTx6F3ANj8Ozj4SLIdH9sVTDXRxjOHA38Lpb7vj2DqicS4X/WeU/7NAAC8nLQIMKOLYIrtBFOMZpKp2NJ/ibndk/pnEcei98TwXSFgsh0fK3kNRzvPGE79Ryj1fV8EU08mxt7Cqd7Lts7GvxkAgJeTFgFmdBFMsZ1gitFMMhVa/poozybzqty9vNwriOPx8+r4VLtr2cRkOz5WFq5GW+099yxXrrRg56d39kMw9aRiH9pVsq+ytN+37BgAAJxZWgSY0UUwxXaCKUYTTBValuW31SReta9Zv68qjke7YiE7TpV+zvp+K9mGj5Ve9RftPcOVK79mY7+JvwumnljsR1tatMtzOIkWvP3wsxAA4IzSIsCMLoIpthNMMZpgqtD3ybtsUq/KXfc8eiVxTHoHEj+8QiDZho91WY4y2v0Sei+l+agWVnzKxvvW98dl2++y7mePaE8w9QOxP+0qztleg3u0fWlXhKVX+gEAvIK0CDCji2CK7QRTjCaYKrL0X1bOMn6JOC69j3vzYbCQPJ6PdbtPWrTdrp76NRy9tFoLce7ez++Pz9rZZd3PHtGeYOoOsU+zvAb3aM+1K6QAAEJaBJjRRTDFdoIpRhNMFVn6X7ljGb93xLHpPQH84Wdz8ng+1i2Yuok+WjhwxNUrbTnPh/cvthFMnVDsX3sNPss90No429VRP7zCDwDglaRFgBldBFNsJ5hiNMFUgTaR931iryfL+L0jjk3ve3t9eLVa8ng+1j2Yeiv6+xzaFSw9AoIWirZQugUQm5c7i20FUycW+9leg1/DTMv8tddu++xsr11hFADAO9IiAAAA3GP560qqf4QWVLVJ+Ra23BsWtMe1x7eAoV1ZIizmYe118/310wLNkcv93V67LYjy2gUAuFNaBAAAgCrLX1dAtvDK5D3dvXm9tbC0BUctQNpyddptuxZ4tbZa+NXadTUUAMAOaREAAAAAAACqpUUAAAAAAAColhYBAAAAAACgWloEAAAAAACAamkRAAAAAAAAqqVFAAAAAAAAqJYWAQAAAAAAoFpaBAAAAAAAgGppEQAAAAAAAKqlRQAAAAAAAKiWFgEAAAAAAKBaWgQAAAAAAIBqaREAAAAAAACqpUUAAAAAAAColhYBAAAAAACgWloEAAAAAACAamkRAAAAAAAAqqVFAAAAAAAAqJYWAQAAAAAAoFpaBAAAAAAAgGppEQAAAAAAAKqlRQAAAAAAAKiWFgEAAAAAAKBaWgQAAAAAAIBqaREAAAAAAACqpUUAAAAAAAColhYBAAAAAACgWloEAAAAAACAamkRAAAAAAAAqqVFAAAAAAAAqJYWAQAAAAAAoFpaBAAAAAAAgGppEQAAAAAAAKqlRQAAAAAAAKiWFgEAAAAAAKBaWgQAAAAAAIBqaREAAAAAAACqpUUAAAAAAAColhYBAAAAAACgWloEAAAAAACAamkRAAAAAAAAqqVFAAAAAAAAqJYWAQAAAAAAoFpaBAAAAAAAgGppEQAAAAAAAKqlRQAAAAAAAKiWFgEAAAAAAKBaWgQAAAAAAIBqaREAAAAAAACqpUUAAAAAAAColhYBAAAAAACgWloEAAAAAACAamkRAAAAAAAAqqVFAAAAAAAAqJYWAQAAAAAAoFpaBAAAAAAAgGppEQAAAAAAAKqlRQAAAAAAAKiWFgEAAAAAAKBaWgQAAAAAAIBqaREAAAAAAACqpUUAAAAAAAColhYBAAAAAACgWloEAAAAAACAamkRAAAAAAAAqqVFAAAAAAAAqJYWAQAAAAAAoFpaBAAAAAAAgGppEQAAAAAAAKqlRQAAAAAAAKiWFgEAAAAAAKBaWgQAAAAAAIBqaREAAAAAAACqpUUAAAAAAAColhYBAAAAAACgWloEAAAAAACAamkRAAAAAAAAqqVFAAAAAAAAqJYWAQAAAAAAoFpaBAAAAAAAgGppEQAAAAAAAKqlRQAAAAAAAKiWFgEAAAAAAKBaWgQAAAAAAIBqaREAAAAAAACqpUUAAAAAAAColhYBAAAAAACgWloEAAAAAACAamkRAAAAAAAAqqVFAAAAAAAAqJYWAQAAAAAAoFpaBAAAAAAAgGppEQAAAAAAAKqlRQAAAAAAAKiWFgEAAAAAAKBaWgQAAAAAAIBqaREAAAAAAACqpUUAAAAAAAColhYBAAAAAACgWloEAAAAAACAamkRAAAAAAAAqqVFAAAAAAAAqJYWAQAAAAAAoFpaBAAAAAAAgGppEQAAAAAAAKqlRQAAAAAAAKiWFgEAAAAAAKBaWgQAAAAAAIBqaREAAAAAAACqpUUAAAAAAAColhYBAAAAAACgWloEAAAAAACAamkRAAAAAAAAqqVFAAAAAAAAqJYWAQAAAAAAoFpaBAAAAAAAgGppEQAAAAAAAKqlRQAAAAAAAKiWFgEAAAAAAKBaWgQAAAAAAIBqaREAAAAAAACqpUUAAAAAAAColhYBAAAAAACgWloEAAAAAACAamkRAAAAAAAAqqVFAAAAAAAAqJYWAQAAAAAAoFpaBAAAAAAAgGppEQAAAAAAAKqlRQAAAAAAAKiWFgEAAAAAAKBaWgQAAAAAAIBqaREAAAAAAACqpUUAAAAAAAColhYBAAAAAACgWloEAAAAAACAamkRAAAAAAAAqqVFAAAAAAAAqJYWAQAAAAAAoFpaBAAAAAAAgGppEQAAAAAAAKqlRQAAAAAAAKiWFgEAAAAAAKBaWgQAAAAAAIBqaREAAAAAAACqpUUAAAAAAAColhYBAAAAAACgWloEAAAAAACAamkRAAAAAAAAqqVFAAAAAAAAqJYWAQAAAAAAoFpaBAAAAAAAgGppEQAAAAAAAKqlRQAAAAAAAKiWFgEAAAAAAKBaWgQAAAAAAIBqaREAAAAAAACqpUUAAAAAAAColhYBAAAAAACgWloEAAAAAACAamkRAAAAAAAAqqVFAAAAAAAAqJYWAQAAAAAAoFpaBAAAAAAAgGppEQAAAAAAAKqlRQAAAAAAAKiWFgEAAAAAAKBaWgQAAAAAAIBqaREAAAAAAACqpUUAAAAAAAColhYBAAAAAACgWloEAAAAAACAamkRAAAAAAAAqqVFAAAAAAAAqJYWAQAAAAAAoFpaBAAAAAAAgGppEQAAAAAAAKqlRQAAAAAAAKiWFgEAAAAAAKBaWgQAAAAAAIBqaREAAAAAAACqpUUAAAAAAAColhYBAAAAAACgWloEAAAAAACAamkRAAAAAAAAqqVFAAAAAAAAqJYWAQAAAAAAoFpaBAAAAAAAgGppEQAAAAAAAKqlRQAAAAAAAKiWFgEAAAAAAKBaWgQAAAAAAIBqaREAAAAAAACqpUUAAAAAAAColhYBAAAAAACgWloEAAAAAACAamkRAAAAAAAAqqVFAAAAAAAAqJYWAQAAAAAAoFpaBAAAAAAAgGppEQAAAAAAAKqlRQAAAAAAAKiWFgEAAAAAAKBaWgQAAAAAAIBqaREAAAAAAACqpUUAAAAAAAColhYBAAAAAACgWloEAAAAAACAamkRAAAAAAAAqqVFAAAAAAAAqJYWAQAAAAAAoFpaBAAAAAAAgGppEQAAAAAAAKqlRQAAAAAAAKiWFgEAAAAAAKBaWgQAAAAAAIBqaREAAAAAAACqpUUAAAAAAAColhYBAAAAAACgWloEAAAAAACAamkRAAAAAAAAqqVFAAAAAAAAqJYWAQAAAAAAoFpaBAAAAAAAgGppEQAAAAAAAKqlRQAAAAAAAKiWFgEAAAAAAKBaWgQAAAAAAIBqaREAAAAAAACqpUUAAAAAAAColhYBAAAAAACgWloEAAAAAACAamkRAAAAAAAAqqVFAAAAAAAAqJYWAQAAAAAAoFpaBAAAAAAAgGppEQAAAAAAAKqlRQAAAAAAAKiWFgEAAAAAAKBaWgQAAAAAAIBqaREAAAAAAACqpUUAAAAAAAColhYBAAAAAACgWloEAAAAAACAamkRAAAAAAAAqqVFAAAAAAAAqJYWAQAAAAAAoFpaBAAAAAAAgGppEQAAAAAAAKqlRQAAAAAAAKiWFgEAAAAAAKBaWgQAAAAAAIBqaREAAAAAAACqpUUAAAAAAAColhYBAAAAAACgWloEAAAAAACAamkRAAAAAAAAqqVFAAAAAAAAqJYWAQAAAAAAoFpaBAAAAAAAgGppEQAAAAAAAKqlRQAAAAAAAKiWFgEAAAAAAKBaWgQAAAAAAIBqaREAAAAAAACqpUUAAAAAAAColhYBAAAAAACgWloEAAAAAACAamkRAAAAAAAAqqVFAAAAAAAAqJYWAQAAAAAAoFpaBAAAAAAAgGppEQAAAAAAAKqlRQAAAAAAAKiWFgEAAAAAAKBaWgQAAAAAAIBqaREAAAAAAACqpUUAAAAAAAColhYBAAAAAACgWloEAAAAAACAamkRAAAAAAAAqqVFAAAAAAAAqJYWAQAAAAAAoFpaBAAAAAAAgGppEQAAAAAAAKqlRQAAAAAAAKiWFgEAAAAAAKBaWgQAAAAAAIBqaREAAAAAAACqpUUAAAAAAAColhYBAAAAAACgWloEAAAAAACAamkRAAAAAAAAqqVFAAAAAAAAqJYWAQAAAAAAoFpaBAAAAAAAgFr/vPz/GhoivpSh09AAAAAASUVORK5CYII=;strokeColor=none;points=[];labelBackgroundColor=none;rounded=0;html=1;whiteSpace=wrap;" parent="1" vertex="1">
            <mxGeometry x="-15" y="426" width="166" height="88" as="geometry" />
          </mxCell>
        </UserObject>
        <mxCell id="157" parent="1" vertex="1">
          <mxGeometry x="60" y="254" as="geometry" />
        </mxCell>
        <mxCell id="159" parent="1" vertex="1">
          <mxGeometry x="50" y="254" as="geometry" />
        </mxCell>
        <mxCell id="161" parent="1" vertex="1">
          <mxGeometry x="73" y="254" as="geometry" />
        </mxCell>
        <UserObject label="" tags="Connector" id="163">
          <mxCell style="vsdxID=138;edgeStyle=none;startArrow=none;endArrow=block;startSize=9;endSize=9;strokeWidth=2;spacingTop=0;spacingBottom=0;spacingLeft=0;spacingRight=0;verticalAlign=middle;html=1;labelBackgroundColor=#ffffff;rounded=0;exitX=1;exitY=0.52;exitDx=0;exitDy=0;exitPerimeter=0;entryX=0;entryY=0.5042016806722689;entryDx=0;entryDy=0;entryPerimeter=0;" parent="1" source="30" edge="1">
            <mxGeometry relative="1" as="geometry">
              <mxPoint as="offset" />
              <Array as="points">
                <mxPoint x="628.08" y="212" />
                <mxPoint x="628.08" y="307.61" />
              </Array>
              <mxPoint x="676" y="307" as="targetPoint" />
            </mxGeometry>
          </mxCell>
        </UserObject>
        <UserObject label="" tags="Connector" id="164">
          <mxCell style="vsdxID=137;edgeStyle=none;startArrow=none;endArrow=block;startSize=9;endSize=9;strokeWidth=2;spacingTop=0;spacingBottom=0;spacingLeft=0;spacingRight=0;verticalAlign=middle;html=1;labelBackgroundColor=#ffffff;rounded=0;exitX=1;exitY=0.52;exitDx=0;exitDy=0;exitPerimeter=0;entryX=0;entryY=0.5042016806722689;entryDx=0;entryDy=0;entryPerimeter=0;" parent="1" edge="1">
            <mxGeometry relative="1" as="geometry">
              <mxPoint as="offset" />
              <Array as="points">
                <mxPoint x="627.08" y="212" />
                <mxPoint x="627.08" y="141.41" />
              </Array>
              <mxPoint x="553" y="212" as="sourcePoint" />
              <mxPoint x="675" y="141" as="targetPoint" />
            </mxGeometry>
          </mxCell>
        </UserObject>
        <UserObject label="" tags="Connector" id="165">
          <mxCell style="vsdxID=110;edgeStyle=none;startArrow=none;endArrow=block;startSize=9;endSize=9;strokeWidth=2;spacingTop=0;spacingBottom=0;spacingLeft=0;spacingRight=0;verticalAlign=middle;html=1;labelBackgroundColor=#ffffff;rounded=0;exitX=1;exitY=0.52;exitDx=0;exitDy=0;exitPerimeter=0;entryX=0;entryY=0.52;entryDx=0;entryDy=0;entryPerimeter=0;" parent="1" source="6" target="5" edge="1">
            <mxGeometry relative="1" as="geometry">
              <mxPoint as="offset" />
              <Array as="points" />
            </mxGeometry>
          </mxCell>
        </UserObject>
        <UserObject label="" tags="Connector" id="166">
          <mxCell style="vsdxID=115;edgeStyle=none;startArrow=none;endArrow=block;startSize=9;endSize=9;strokeWidth=2;spacingTop=0;spacingBottom=0;spacingLeft=0;spacingRight=0;verticalAlign=middle;html=1;labelBackgroundColor=#ffffff;rounded=0;exitX=1.02;exitY=0.52;exitDx=0;exitDy=0;exitPerimeter=0;entryX=0;entryY=0.52;entryDx=0;entryDy=0;entryPerimeter=0;" parent="1" source="5" target="24" edge="1">
            <mxGeometry relative="1" as="geometry">
              <mxPoint x="-1" as="offset" />
              <Array as="points" />
            </mxGeometry>
          </mxCell>
        </UserObject>
        <UserObject label="" tags="Connector" id="167">
          <mxCell style="vsdxID=119;edgeStyle=none;startArrow=none;endArrow=block;startSize=9;endSize=9;strokeWidth=2;spacingTop=0;spacingBottom=0;spacingLeft=0;spacingRight=0;verticalAlign=middle;html=1;labelBackgroundColor=#ffffff;rounded=0;exitX=1.02;exitY=0.52;exitDx=0;exitDy=0;exitPerimeter=0;entryX=0;entryY=0.52;entryDx=0;entryDy=0;entryPerimeter=0;" parent="1" source="24" edge="1">
            <mxGeometry relative="1" as="geometry">
              <mxPoint as="offset" />
              <Array as="points" />
              <mxPoint x="380" y="212" as="targetPoint" />
            </mxGeometry>
          </mxCell>
        </UserObject>
      </root>
    </mxGraphModel>
  </diagram>
</mxfile>
